<?xml version="1.0" encoding="UTF-8" standalone="no"?>
<!-- Created with Inkscape (http://www.inkscape.org/) -->

<svg
   xmlns:dc="http://purl.org/dc/elements/1.1/"
   xmlns:cc="http://creativecommons.org/ns#"
   xmlns:rdf="http://www.w3.org/1999/02/22-rdf-syntax-ns#"
   xmlns:svg="http://www.w3.org/2000/svg"
   xmlns="http://www.w3.org/2000/svg"
   xmlns:sodipodi="http://sodipodi.sourceforge.net/DTD/sodipodi-0.dtd"
   xmlns:inkscape="http://www.inkscape.org/namespaces/inkscape"
   width="400mm"
   height="300mm"
   viewBox="0 0 1417.3228 1062.9921"
   id="svg8646"
   version="1.1"
   inkscape:version="0.91 r13725"
   sodipodi:docname="fibonacci_puzzle_8x8.svg">
  <defs
     id="defs8648" />
  <sodipodi:namedview
     id="base"
     pagecolor="#ffffff"
     bordercolor="#666666"
     borderopacity="1.0"
     inkscape:pageopacity="0.0"
     inkscape:pageshadow="2"
     inkscape:zoom="1.0413075"
     inkscape:cx="217.86933"
     inkscape:cy="797.10866"
     inkscape:document-units="mm"
     inkscape:current-layer="layer2"
     showgrid="false"
     inkscape:window-width="1600"
     inkscape:window-height="850"
     inkscape:window-x="0"
     inkscape:window-y="0"
     inkscape:window-maximized="1"
     inkscape:snap-bbox="true"
     inkscape:bbox-nodes="true"
     inkscape:object-nodes="true"
     showguides="true"
     inkscape:guide-bbox="true">
    <inkscape:grid
       type="xygrid"
       id="grid9194" />
    <sodipodi:guide
       position="283.46455,752.95278"
       orientation="1,0"
       id="guide3354" />
    <sodipodi:guide
       position="301.18109,779.52758"
       orientation="0,1"
       id="guide3356" />
  </sodipodi:namedview>
  <metadata
     id="metadata8651">
    <rdf:RDF>
      <cc:Work
         rdf:about="">
        <dc:format>image/svg+xml</dc:format>
        <dc:type
           rdf:resource="http://purl.org/dc/dcmitype/StillImage" />
        <dc:title />
      </cc:Work>
    </rdf:RDF>
  </metadata>
  <g
     inkscape:label="Layer 1"
     inkscape:groupmode="layer"
     id="layer1"
     transform="translate(0,10.629918)">
    <g
       transform="matrix(1,0,-0.00654565,0.37500001,-0.06958616,170.52168)"
       id="g4229"
       style="stroke:#00ff00;stroke-opacity:1">
      <path
         style="fill:none;fill-rule:evenodd;stroke:#00ff00;stroke-width:1.41732299;stroke-linecap:butt;stroke-linejoin:miter;stroke-miterlimit:4;stroke-dasharray:none;stroke-opacity:1"
         d="m 246.64648,256.55078 1.38477,-79.38476 m -35.43359,0 -1.38477,79.38476 m -0.38957,19.5283 -0.0811,7.38576 m 35.43359,0 0.0811,-7.38576"
         transform="matrix(1,0,0.01745507,2.6666666,-3.092488,-483.07092)"
         id="path4243"
         inkscape:connector-curvature="0"
         sodipodi:nodetypes="cccccccc" />
      <path
         inkscape:connector-curvature="0"
         id="path4231"
         d="m 35.43301,-10.629979 0,283.464569"
         style="fill:none;fill-rule:evenodd;stroke:#00ff00;stroke-width:2.31447864;stroke-linecap:butt;stroke-linejoin:miter;stroke-miterlimit:4;stroke-dasharray:none;stroke-opacity:1" />
      <path
         inkscape:connector-curvature="0"
         id="path4233"
         d="m 70.866081,-10.629979 0,283.464569"
         style="fill:none;fill-rule:evenodd;stroke:#00ff00;stroke-width:2.31447864;stroke-linecap:butt;stroke-linejoin:miter;stroke-miterlimit:4;stroke-dasharray:none;stroke-opacity:1" />
      <path
         inkscape:connector-curvature="0"
         id="path4235"
         d="m 106.29915,-10.629979 0,283.464569"
         style="fill:none;fill-rule:evenodd;stroke:#00ff00;stroke-width:2.31447864;stroke-linecap:butt;stroke-linejoin:miter;stroke-miterlimit:4;stroke-dasharray:none;stroke-opacity:1" />
      <path
         inkscape:connector-curvature="0"
         id="path4237"
         d="m 141.73222,-10.629979 0,283.464569"
         style="fill:none;fill-rule:evenodd;stroke:#00ff00;stroke-width:2.31447864;stroke-linecap:butt;stroke-linejoin:miter;stroke-miterlimit:4;stroke-dasharray:none;stroke-opacity:1" />
      <path
         inkscape:connector-curvature="0"
         id="path4239"
         d="m 177.16529,-10.629979 0,283.464569"
         style="fill:none;fill-rule:evenodd;stroke:#00ff00;stroke-width:2.31447864;stroke-linecap:butt;stroke-linejoin:miter;stroke-miterlimit:4;stroke-dasharray:none;stroke-opacity:1" />
      <g
         id="layer1-0"
         inkscape:label="Layer 1"
         transform="matrix(1,0,0.01745507,2.6666666,187.28801,201.1135)">
        <g
           id="g6397"
           transform="translate(-139.45868,-492.63423)"
           style="display:inline">
          <g
             id="g6399">
            <path
               id="path6401"
               style="fill:none;fill-opacity:1;fill-rule:nonzero;stroke:#00ff00;stroke-width:0.35433072;stroke-miterlimit:4;stroke-dasharray:none;stroke-opacity:1"
               d="m 148.56697,493.48854 6.77313,3.98574 0.81014,-0.55951 c -1.59033,-2.48865 -4.3735,-4.1427 -7.54867,-4.14565 -3.17728,-10e-4 -5.9689,1.65911 -7.55923,4.15578 l 0.78019,0.48144 2.08232,-1.20719 1.4629,0.82617 c -0.0473,0.14684 -0.0743,0.29663 -0.0747,0.45191 -0.001,1.15277 1.36881,2.08696 3.05365,2.0857 1.6878,0.002 3.0566,-0.93167 3.05913,-2.08232 0,-1.1515 -1.3688,-2.08612 -3.05744,-2.08781 -0.37427,8.5e-4 -0.73462,0.0498 -1.06585,0.13545 l -1.06457,-0.67428 2.34899,-1.36543 z"
               inkscape:connector-curvature="0" />
            <path
               id="path6403"
               style="fill:none;fill-opacity:1;fill-rule:nonzero;stroke:#00ff00;stroke-width:0.35433072;stroke-miterlimit:4;stroke-dasharray:none;stroke-opacity:1"
               d="m 148.21295,509.57789 -1.82957,-1.02997 -0.0734,-2.09034 c 0.0873,-0.0304 0.17258,-0.0671 0.25654,-0.11224 0.99623,-0.57638 1.1207,-2.22874 0.27849,-3.69163 -0.84432,-1.46079 -2.33338,-2.17853 -3.33129,-1.60341 -0.99707,0.5768 -1.11985,2.22663 -0.28355,3.68699 0.15612,0.26372 0.32786,0.49832 0.51478,0.71141 l -0.0671,1.57176 -2.19878,-1.24222 0.0376,-7.82547 -0.7958,-0.47849 c -0.68271,1.26205 -1.07217,2.7068 -1.07302,4.24312 -0.002,4.81951 3.8081,8.75165 8.58161,8.94701 l -0.0165,-1.08652 z"
               inkscape:connector-curvature="0" />
            <path
               id="path6405"
               style="fill:none;fill-opacity:1;fill-rule:nonzero;stroke:#00ff00;stroke-width:0.35433072;stroke-miterlimit:4;stroke-dasharray:none;stroke-opacity:1"
               d="m 156.47134,497.45824 -0.93419,0.6574 -8.5e-4,2.31735 -1.50678,0.89706 c -0.0987,-0.10844 -0.21393,-0.20211 -0.34431,-0.27722 -0.99243,-0.57469 -2.49119,0.14262 -3.33509,1.60383 -0.84474,1.46037 -0.71689,3.11272 0.27595,3.68995 0.9996,0.57638 2.49119,-0.14262 3.33509,-1.60425 0.19072,-0.32912 0.32743,-0.665 0.42068,-0.99749 l 1.15277,-0.65402 0,2.69625 -6.68283,3.82118 0.003,1.05698 c 4.82161,-0.13418 8.69342,-4.08321 8.69553,-8.93942 0.003,-1.54644 -0.38946,-2.99879 -1.0785,-4.2676"
               inkscape:connector-curvature="0" />
          </g>
          <g
             id="g6407">
            <path
               id="path6409"
               style="fill:none;fill-opacity:1;fill-rule:nonzero;stroke:#00ff00;stroke-width:0.35433072;stroke-miterlimit:4;stroke-dasharray:none;stroke-opacity:1"
               d="m 163.26979,499.01186 2.54647,8.5e-4 0,1.4802 -2.54647,-4.2e-4 0,-1.48062 z m 0.002,-4.43595 3.20808,8.5e-4 0.0726,1.62914 -3.2815,-8.5e-4 8.5e-4,-1.62914 z m -0.78018,10.34409 -1.84983,-8.5e-4 0.002,-10.34325 1.85109,0 -0.003,10.34409 z"
               inkscape:connector-curvature="0" />
            <path
               id="path6411"
               style="fill:none;fill-opacity:1;fill-rule:nonzero;stroke:#00ff00;stroke-width:0.35433072;stroke-miterlimit:4;stroke-dasharray:none;stroke-opacity:1"
               d="m 170.65897,498.0245 0.74094,-3.44606 0.38313,-4.2e-4 2.28612,10.34451 -1.84687,-4.2e-4 -0.58946,-2.21735 -2.14266,-8.5e-4 0.33882,-1.48231 1.54603,0 -0.71605,-3.19711 z m 0.0738,-3.44648 -2.42579,10.34324 -1.84518,-4.2e-4 2.36671,-10.34324 1.90426,4.2e-4 z"
               inkscape:connector-curvature="0" />
            <path
               id="path6413"
               style="fill:none;fill-opacity:1;fill-rule:nonzero;stroke:#00ff00;stroke-width:0.35433072;stroke-miterlimit:4;stroke-dasharray:none;stroke-opacity:1"
               d="m 177.36796,499.01566 1.18273,4.2e-4 c 0.68946,-0.054 1.03504,-0.37511 1.03504,-0.96162 l 0,-1.1072 c 0,-0.49241 -0.32068,-0.73841 -0.95994,-0.73841 l -1.25698,-4.2e-4 8.5e-4,-1.62915 1.47766,4.3e-4 c 1.72324,4.2e-4 2.58613,0.74009 2.58529,2.21903 l 0,1.25783 c -8.5e-4,0.88609 -0.44347,1.45319 -1.32999,1.70172 0.98694,0.24557 1.47978,0.81225 1.47978,1.6975 l -4.2e-4,1.25446 c -4.2e-4,1.47682 -0.86373,2.21354 -2.59035,2.21354 l -1.6245,-4.2e-4 0,-1.62746 1.25656,4.3e-4 c 0.73841,0 1.10804,-0.24685 1.10804,-0.73631 l 4.2e-4,-1.10508 c 0,-0.58187 -0.39537,-0.90297 -1.18146,-0.95698 l -1.18272,0 0,-1.48231 z m -0.66499,5.90771 -1.8494,-8.5e-4 0.002,-10.34366 1.85025,4.2e-4 -0.003,10.34409 z"
               inkscape:connector-curvature="0" />
            <path
               id="path6415"
               style="fill:none;fill-opacity:1;fill-rule:nonzero;stroke:#00ff00;stroke-width:0.35433072;stroke-miterlimit:4;stroke-dasharray:none;stroke-opacity:1"
               d="m 185.25926,503.2976 3.3545,8.5e-4 -0.073,1.62746 -3.28193,-8.5e-4 4.3e-4,-1.62746 z m -2.55828,1.62704 0.003,-10.34367 1.85025,0.0722 -0.002,10.27194 -1.85067,-4.2e-4 z"
               inkscape:connector-curvature="0" />
            <path
               id="path6417"
               style="fill:none;fill-opacity:1;fill-rule:nonzero;stroke:#00ff00;stroke-width:0.35433072;stroke-miterlimit:4;stroke-dasharray:none;stroke-opacity:1"
               d="m 193.56027,498.02999 0.73926,-3.44606 0.3827,0 2.28908,10.34451 -1.84688,-4.3e-4 -0.59157,-2.21776 -2.14139,0 0.33967,-1.48315 1.54391,4.2e-4 -0.71478,-3.19753 z m 0.0734,-3.44649 -2.42537,10.34325 -1.84771,-8.5e-4 2.36755,-10.34282 1.90553,4.2e-4 z"
               inkscape:connector-curvature="0" />
            <path
               id="path6419"
               style="fill:none;fill-opacity:1;fill-rule:nonzero;stroke:#00ff00;stroke-width:0.35433072;stroke-miterlimit:4;stroke-dasharray:none;stroke-opacity:1"
               d="m 200.26842,499.02114 1.1823,8.5e-4 c 0.68946,-0.0544 1.03631,-0.37511 1.03673,-0.9612 l 4.3e-4,-1.10804 c 0,-0.49199 -0.3228,-0.73798 -0.96247,-0.73798 l -1.25657,-4.3e-4 10e-4,-1.62914 1.47809,4.2e-4 c 1.72409,4.2e-4 2.58571,0.73968 2.58528,2.21861 l 0,1.25741 c -4.2e-4,0.88694 -0.44473,1.45404 -1.33083,1.70256 0.98652,0.24516 1.4802,0.81141 1.47936,1.69751 l 0,1.25445 c 0,1.47682 -0.86289,2.21439 -2.59035,2.21313 l -1.62451,-4.3e-4 4.3e-4,-1.62788 1.25657,8.5e-4 c 0.73925,-4.2e-4 1.10761,-0.24726 1.10761,-0.7363 l 10e-4,-1.10424 c -10e-4,-0.58229 -0.3941,-0.90382 -1.1823,-0.95698 l -1.18146,-8.5e-4 0,-1.48231 z m -0.66542,5.9073 -1.85066,0 0.002,-10.34409 1.85066,8.5e-4 -0.002,10.34324 z"
               inkscape:connector-curvature="0" />
          </g>
          <g
             style="stroke:#00ff00;stroke-width:2.35265326;stroke-miterlimit:4;stroke-dasharray:none;stroke-opacity:1"
             transform="matrix(0.15060898,0,0,0.15060898,156.01755,423.80052)"
             id="g6421">
            <path
               inkscape:connector-curvature="0"
               d="m 30.448758,554.78734 0,21 m 0,-21 9,0 3,1 1,1 1,2 0,2 -1,2 -1,1 -3,1 -9,0 m 7,0 7,11"
               style="fill:none;stroke:#00ff00;stroke-width:2.35265326;stroke-miterlimit:4;stroke-dasharray:none;stroke-opacity:1"
               id="path6423" />
            <path
               inkscape:connector-curvature="0"
               d="m 51.448758,554.78734 0,21 m 0,-21 13,0 m -13,10 8,0 m -8,11 13,0"
               style="fill:none;stroke:#00ff00;stroke-width:2.35265326;stroke-miterlimit:4;stroke-dasharray:none;stroke-opacity:1"
               id="path6425" />
            <path
               inkscape:connector-curvature="0"
               d="m 84.448758,559.78734 -1,-2 -2,-2 -2,-1 -4,0 -2,1 -2,2 -1,2 -1,3 0,5 1,3 1,2 2,2 2,1 4,0 2,-1 2,-2 1,-2 0,-3 m -5,0 5,0"
               style="fill:none;stroke:#00ff00;stroke-width:2.35265326;stroke-miterlimit:4;stroke-dasharray:none;stroke-opacity:1"
               id="path6427" />
            <path
               inkscape:connector-curvature="0"
               d="m 91.448758,554.78734 0,21"
               style="fill:none;stroke:#00ff00;stroke-width:2.35265326;stroke-miterlimit:4;stroke-dasharray:none;stroke-opacity:1"
               id="path6429" />
            <path
               inkscape:connector-curvature="0"
               d="m 104.44876,554.78734 -2,1 -2,2 -1,2 -1,3 0,5 1,3 1,2 2,2 2,1 4,0 2,-1 2,-2 1,-2 1,-3 0,-5 -1,-3 -1,-2 -2,-2 -2,-1 -4,0"
               style="fill:none;stroke:#00ff00;stroke-width:2.35265326;stroke-miterlimit:4;stroke-dasharray:none;stroke-opacity:1"
               id="path6431" />
            <path
               inkscape:connector-curvature="0"
               d="m 121.44876,554.78734 0,21 m 0,-21 14,21 m 0,-21 0,21"
               style="fill:none;stroke:#00ff00;stroke-width:2.35265326;stroke-miterlimit:4;stroke-dasharray:none;stroke-opacity:1"
               id="path6433" />
            <path
               inkscape:connector-curvature="0"
               d="m 159.44876,554.78734 0,21 m 0,-21 14,21 m 0,-21 0,21"
               style="fill:none;stroke:#00ff00;stroke-width:2.35265326;stroke-miterlimit:4;stroke-dasharray:none;stroke-opacity:1"
               id="path6435" />
            <path
               inkscape:connector-curvature="0"
               d="m 181.44876,554.78734 0,15 1,3 2,2 3,1 2,0 3,-1 2,-2 1,-3 0,-15"
               style="fill:none;stroke:#00ff00;stroke-width:2.35265326;stroke-miterlimit:4;stroke-dasharray:none;stroke-opacity:1"
               id="path6437" />
            <path
               inkscape:connector-curvature="0"
               d="m 203.44876,554.78734 0,21 m 0,-21 9,0 3,1 1,1 1,2 0,2 -1,2 -1,1 -3,1 -9,0 m 7,0 7,11"
               style="fill:none;stroke:#00ff00;stroke-width:2.35265326;stroke-miterlimit:4;stroke-dasharray:none;stroke-opacity:1"
               id="path6439" />
            <path
               inkscape:connector-curvature="0"
               d="m 224.44876,554.78734 0,21 m 0,-21 14,21 m 0,-21 0,21"
               style="fill:none;stroke:#00ff00;stroke-width:2.35265326;stroke-miterlimit:4;stroke-dasharray:none;stroke-opacity:1"
               id="path6441" />
            <path
               inkscape:connector-curvature="0"
               d="m 246.44876,554.78734 0,21 m 0,-21 9,0 3,1 1,1 1,2 0,2 -1,2 -1,1 -3,1 m -9,0 9,0 3,1 1,1 1,2 0,3 -1,2 -1,1 -3,1 -9,0"
               style="fill:none;stroke:#00ff00;stroke-width:2.35265326;stroke-miterlimit:4;stroke-dasharray:none;stroke-opacity:1"
               id="path6443" />
            <path
               inkscape:connector-curvature="0"
               d="m 267.44876,554.78734 0,21 m 0,-21 13,0 m -13,10 8,0 m -8,11 13,0"
               style="fill:none;stroke:#00ff00;stroke-width:2.35265326;stroke-miterlimit:4;stroke-dasharray:none;stroke-opacity:1"
               id="path6445" />
            <path
               inkscape:connector-curvature="0"
               d="m 286.44876,554.78734 0,21 m 0,-21 9,0 3,1 1,1 1,2 0,2 -1,2 -1,1 -3,1 -9,0 m 7,0 7,11"
               style="fill:none;stroke:#00ff00;stroke-width:2.35265326;stroke-miterlimit:4;stroke-dasharray:none;stroke-opacity:1"
               id="path6447" />
            <path
               inkscape:connector-curvature="0"
               d="m 321.44876,559.78734 -1,-2 -2,-2 -2,-1 -4,0 -2,1 -2,2 -1,2 -1,3 0,5 1,3 1,2 2,2 2,1 4,0 2,-1 2,-2 1,-2 0,-3 m -5,0 5,0"
               style="fill:none;stroke:#00ff00;stroke-width:2.35265326;stroke-miterlimit:4;stroke-dasharray:none;stroke-opacity:1"
               id="path6449" />
            <g
               style="stroke:#00ff00;stroke-width:2.35265326;stroke-miterlimit:4;stroke-dasharray:none;stroke-opacity:1"
               id="g6451"
               transform="translate(0.36221,-1.5912904)">
              <path
                 inkscape:connector-curvature="0"
                 id="path6453"
                 d="m 183.08655,551.24403 1,1 1,-1 -1,-1 -1,1"
                 style="fill:none;stroke:#00ff00;stroke-width:2.35265326;stroke-miterlimit:4;stroke-dasharray:none;stroke-opacity:1" />
              <path
                 inkscape:connector-curvature="0"
                 id="path6455"
                 d="m 191.08655,551.24403 1,1 1,-1 -1,-1 -1,1"
                 style="fill:none;stroke:#00ff00;stroke-width:2.35265326;stroke-miterlimit:4;stroke-dasharray:none;stroke-opacity:1" />
            </g>
          </g>
        </g>
      </g>
    </g>
    <path
       style="opacity:1;fill:none;fill-opacity:1;fill-rule:nonzero;stroke:#ff0000;stroke-width:1.41732287;stroke-linecap:butt;stroke-linejoin:round;stroke-miterlimit:4;stroke-dasharray:none;stroke-dashoffset:29.05511856;stroke-opacity:1"
       d="m -6.1035156e-5,-10.629978 283.464571035156,0 0,110.728398 0,66.43702 -283.464571035156,-4e-5 z"
       id="rect9196"
       inkscape:connector-curvature="0"
       sodipodi:nodetypes="cccccc" />
    <g
       id="g9212"
       transform="matrix(1,0,0,0.62500021,0,-3.9862399)"
       style="stroke:#00ff00;stroke-opacity:1">
      <path
         inkscape:connector-curvature="0"
         id="path9198"
         d="m 35.43301,-10.629979 0,283.464569"
         style="fill:none;fill-rule:evenodd;stroke:#00ff00;stroke-width:1.79278708;stroke-linecap:butt;stroke-linejoin:miter;stroke-miterlimit:4;stroke-dasharray:none;stroke-opacity:1" />
      <path
         inkscape:connector-curvature="0"
         id="path9200"
         d="m 70.866081,-10.629979 0,283.464569"
         style="fill:none;fill-rule:evenodd;stroke:#00ff00;stroke-width:1.79278708;stroke-linecap:butt;stroke-linejoin:miter;stroke-miterlimit:4;stroke-dasharray:none;stroke-opacity:1" />
      <path
         inkscape:connector-curvature="0"
         id="path9202"
         d="m 106.29915,-10.629979 0,283.464569"
         style="fill:none;fill-rule:evenodd;stroke:#00ff00;stroke-width:1.79278708;stroke-linecap:butt;stroke-linejoin:miter;stroke-miterlimit:4;stroke-dasharray:none;stroke-opacity:1" />
      <path
         inkscape:connector-curvature="0"
         id="path9204"
         d="m 141.73222,-10.629979 0,283.464569"
         style="fill:none;fill-rule:evenodd;stroke:#00ff00;stroke-width:1.79278708;stroke-linecap:butt;stroke-linejoin:miter;stroke-miterlimit:4;stroke-dasharray:none;stroke-opacity:1" />
      <path
         inkscape:connector-curvature="0"
         id="path9206"
         d="m 177.16529,-10.629979 0,283.464569"
         style="fill:none;fill-rule:evenodd;stroke:#00ff00;stroke-width:1.79278708;stroke-linecap:butt;stroke-linejoin:miter;stroke-miterlimit:4;stroke-dasharray:none;stroke-opacity:1" />
      <path
         inkscape:connector-curvature="0"
         id="path9208"
         d="m 212.59837,-10.629979 0,283.464569"
         style="fill:none;fill-rule:evenodd;stroke:#00ff00;stroke-width:1.79278708;stroke-linecap:butt;stroke-linejoin:miter;stroke-miterlimit:4;stroke-dasharray:none;stroke-opacity:1" />
      <path
         inkscape:connector-curvature="0"
         id="path9210"
         d="m 248.03144,-10.629979 0,283.464569"
         style="fill:none;fill-rule:evenodd;stroke:#00ff00;stroke-width:1.79278708;stroke-linecap:butt;stroke-linejoin:miter;stroke-miterlimit:4;stroke-dasharray:none;stroke-opacity:1" />
    </g>
    <path
       inkscape:connector-curvature="0"
       id="path9223"
       d="m 283.46451,24.80309 -283.46457,0"
       style="fill:none;fill-rule:evenodd;stroke:#00ff00;stroke-width:1.41732287;stroke-linecap:butt;stroke-linejoin:miter;stroke-miterlimit:4;stroke-dasharray:none;stroke-opacity:1" />
    <path
       inkscape:connector-curvature="0"
       id="path9225"
       d="m 283.46451,60.236161 -283.46457,0"
       style="fill:none;fill-rule:evenodd;stroke:#00ff00;stroke-width:1.41732287;stroke-linecap:butt;stroke-linejoin:miter;stroke-miterlimit:4;stroke-dasharray:none;stroke-opacity:1" />
    <path
       inkscape:connector-curvature="0"
       id="path9227"
       d="m 283.46451,95.66923 -283.46457,0"
       style="fill:none;fill-rule:evenodd;stroke:#00ff00;stroke-width:1.41732287;stroke-linecap:butt;stroke-linejoin:miter;stroke-miterlimit:4;stroke-dasharray:none;stroke-opacity:1" />
    <path
       inkscape:connector-curvature="0"
       id="path9229"
       d="m 283.46451,131.1023 -283.46457,0"
       style="fill:none;fill-rule:evenodd;stroke:#00ff00;stroke-width:1.41732287;stroke-linecap:butt;stroke-linejoin:miter;stroke-miterlimit:4;stroke-dasharray:none;stroke-opacity:1" />
    <path
       inkscape:connector-curvature="0"
       id="path9258"
       d="M 106.29915,-10.629979 177.16529,166.53544"
       style="fill:none;fill-rule:evenodd;stroke:#ff0000;stroke-width:1.0629921;stroke-linecap:butt;stroke-linejoin:miter;stroke-miterlimit:4;stroke-dasharray:none;stroke-opacity:1" />
    <path
       style="opacity:1;fill:none;fill-opacity:1;fill-rule:nonzero;stroke:#ff0000;stroke-width:1.41732287;stroke-linecap:butt;stroke-linejoin:round;stroke-miterlimit:4;stroke-dasharray:none;stroke-dashoffset:29.05511856;stroke-opacity:1"
       d="m 283.4645,166.53544 -1.85546,106.29927 -283.4645659,-2e-5 1.855459802674,-106.29925"
       id="path4227"
       inkscape:connector-curvature="0"
       sodipodi:nodetypes="cccc" />
    <path
       inkscape:connector-curvature="0"
       id="path4245"
       d="m 282.84602,201.96851 -283.46457246,0"
       style="fill:none;fill-rule:evenodd;stroke:#00ff00;stroke-width:1.41732287;stroke-linecap:butt;stroke-linejoin:miter;stroke-miterlimit:4;stroke-dasharray:none;stroke-opacity:1" />
    <path
       inkscape:connector-curvature="0"
       id="path4247"
       d="m 282.22753,237.40158 -283.4645688,0"
       style="fill:none;fill-rule:evenodd;stroke:#00ff00;stroke-width:1.41732287;stroke-linecap:butt;stroke-linejoin:miter;stroke-miterlimit:4;stroke-dasharray:none;stroke-opacity:1" />
    <path
       inkscape:connector-curvature="0"
       id="path4249"
       d="M 283.4645,166.53543 -1.8555252,272.83465"
       style="fill:none;fill-rule:evenodd;stroke:#ff0000;stroke-width:1.0629921;stroke-linecap:butt;stroke-linejoin:miter;stroke-miterlimit:4;stroke-dasharray:none;stroke-opacity:1" />
  </g>
  <g
     inkscape:groupmode="layer"
     id="layer2"
     inkscape:label="no-sqew"
     style="display:none">
    <g
       id="g4211"
       transform="translate(44.291343,-95.669298)">
      <path
         style="opacity:1;fill:none;fill-opacity:1;fill-rule:nonzero;stroke:#ff0000;stroke-width:1.41732287;stroke-linecap:butt;stroke-linejoin:round;stroke-miterlimit:4;stroke-dasharray:none;stroke-dashoffset:29.05511856;stroke-opacity:1"
         d="m 611.22041,166.53544 0,106.29927 -283.46457,-2e-5 0,-106.29925"
         id="path4155"
         inkscape:connector-curvature="0"
         sodipodi:nodetypes="cccc" />
      <g
         transform="matrix(1,0,0,0.37500001,327.7559,170.52168)"
         id="g4157">
        <path
           inkscape:connector-curvature="0"
           id="path4159"
           d="m 35.43301,-10.629979 0,283.464569"
           style="fill:none;fill-rule:evenodd;stroke:#0000ff;stroke-width:2.31447864;stroke-linecap:butt;stroke-linejoin:miter;stroke-miterlimit:4;stroke-dasharray:none;stroke-opacity:1" />
        <path
           inkscape:connector-curvature="0"
           id="path4161"
           d="m 70.866081,-10.629979 0,283.464569"
           style="fill:none;fill-rule:evenodd;stroke:#0000ff;stroke-width:2.31447864;stroke-linecap:butt;stroke-linejoin:miter;stroke-miterlimit:4;stroke-dasharray:none;stroke-opacity:1" />
        <path
           inkscape:connector-curvature="0"
           id="path4163"
           d="m 106.29915,-10.629979 0,283.464569"
           style="fill:none;fill-rule:evenodd;stroke:#0000ff;stroke-width:2.31447864;stroke-linecap:butt;stroke-linejoin:miter;stroke-miterlimit:4;stroke-dasharray:none;stroke-opacity:1" />
        <path
           inkscape:connector-curvature="0"
           id="path4165"
           d="m 141.73222,-10.629979 0,283.464569"
           style="fill:none;fill-rule:evenodd;stroke:#0000ff;stroke-width:2.31447864;stroke-linecap:butt;stroke-linejoin:miter;stroke-miterlimit:4;stroke-dasharray:none;stroke-opacity:1" />
        <path
           inkscape:connector-curvature="0"
           id="path4167"
           d="m 177.16529,-10.629979 0,283.464569"
           style="fill:none;fill-rule:evenodd;stroke:#0000ff;stroke-width:2.31447864;stroke-linecap:butt;stroke-linejoin:miter;stroke-miterlimit:4;stroke-dasharray:none;stroke-opacity:1" />
        <path
           inkscape:connector-curvature="0"
           id="path4169"
           d="m 212.59837,-10.629979 0,283.464569"
           style="fill:none;fill-rule:evenodd;stroke:#0000ff;stroke-width:2.31447864;stroke-linecap:butt;stroke-linejoin:miter;stroke-miterlimit:4;stroke-dasharray:none;stroke-opacity:1" />
        <path
           inkscape:connector-curvature="0"
           id="path4171"
           d="m 248.03144,-10.629979 0,283.464569"
           style="fill:none;fill-rule:evenodd;stroke:#0000ff;stroke-width:2.31447864;stroke-linecap:butt;stroke-linejoin:miter;stroke-miterlimit:4;stroke-dasharray:none;stroke-opacity:1" />
      </g>
      <path
         inkscape:connector-curvature="0"
         id="path4185"
         d="m 611.22041,201.96851 -283.46457,0"
         style="fill:none;fill-rule:evenodd;stroke:#0000ff;stroke-width:1.41732287;stroke-linecap:butt;stroke-linejoin:miter;stroke-miterlimit:4;stroke-dasharray:none;stroke-opacity:1" />
      <path
         inkscape:connector-curvature="0"
         id="path4187"
         d="m 611.22041,237.40158 -283.46457,0"
         style="fill:none;fill-rule:evenodd;stroke:#0000ff;stroke-width:1.41732287;stroke-linecap:butt;stroke-linejoin:miter;stroke-miterlimit:4;stroke-dasharray:none;stroke-opacity:1" />
      <path
         inkscape:connector-curvature="0"
         id="path4189"
         d="M 611.22041,166.53543 327.75584,272.83465"
         style="fill:none;fill-rule:evenodd;stroke:#ff0000;stroke-width:1.0629921;stroke-linecap:butt;stroke-linejoin:miter;stroke-miterlimit:4;stroke-dasharray:none;stroke-opacity:1" />
    </g>
  </g>
</svg>
