<?xml version="1.0" encoding="UTF-8" standalone="no"?>
<!-- Created with Inkscape (http://www.inkscape.org/) -->

<svg
   xmlns:dc="http://purl.org/dc/elements/1.1/"
   xmlns:cc="http://creativecommons.org/ns#"
   xmlns:rdf="http://www.w3.org/1999/02/22-rdf-syntax-ns#"
   xmlns:svg="http://www.w3.org/2000/svg"
   xmlns="http://www.w3.org/2000/svg"
   xmlns:sodipodi="http://sodipodi.sourceforge.net/DTD/sodipodi-0.dtd"
   xmlns:inkscape="http://www.inkscape.org/namespaces/inkscape"
   width="400mm"
   height="300mm"
   viewBox="0 0 1417.3228 1062.9921"
   id="svg2"
   version="1.1"
   inkscape:version="0.91 r13725"
   sodipodi:docname="4-6.svg">
  <sodipodi:namedview
     id="base"
     pagecolor="#ffffff"
     bordercolor="#666666"
     borderopacity="1.0"
     inkscape:pageopacity="0.0"
     inkscape:pageshadow="2"
     inkscape:zoom="1.0431332"
     inkscape:cx="485.62348"
     inkscape:cy="884.98248"
     inkscape:document-units="mm"
     inkscape:current-layer="g5902"
     showgrid="false"
     width="400mm"
     inkscape:snap-bbox="true"
     inkscape:bbox-nodes="true"
     inkscape:snap-center="true"
     inkscape:object-nodes="true"
     inkscape:window-width="1600"
     inkscape:window-height="850"
     inkscape:window-x="0"
     inkscape:window-y="0"
     inkscape:window-maximized="1"
     showguides="true"
     inkscape:guide-bbox="true">
    <inkscape:grid
       id="grid4136"
       type="xygrid" />
  </sodipodi:namedview>
  <defs
     id="defs4" />
  <metadata
     id="metadata7">
    <rdf:RDF>
      <cc:Work
         rdf:about="">
        <dc:format>image/svg+xml</dc:format>
        <dc:type
           rdf:resource="http://purl.org/dc/dcmitype/StillImage" />
        <dc:title />
      </cc:Work>
    </rdf:RDF>
  </metadata>
  <g
     inkscape:label="square"
     id="layer2"
     inkscape:groupmode="layer"
     style="display:none">
    <g
       style="stroke:#ff0000;stroke-width:0.62007999;stroke-miterlimit:4;stroke-dasharray:none;stroke-opacity:1"
       transform="matrix(1.1428548,0,0,1.1428548,-2.530883,-589.70486)"
       id="g4245">
      <path
         inkscape:connector-curvature="0"
         id="path4202"
         style="fill:none;stroke:#ff0000;stroke-width:0.62007999;stroke-linecap:butt;stroke-linejoin:miter;stroke-miterlimit:4;stroke-dasharray:none;stroke-opacity:1"
         d="M 17.716474,531.49606 306.24022,698.07481 210.06647,531.49606" />
      <path
         inkscape:connector-curvature="0"
         id="path4204"
         style="fill:none;stroke:#ff0000;stroke-width:0.62007999;stroke-linecap:butt;stroke-linejoin:miter;stroke-miterlimit:4;stroke-dasharray:none;stroke-opacity:1"
         d="m 327.75522,841.53481 0,-310.04 -310.038746,10e-4 0,310.03875 310.039996,0 m -40.045,0 40.045,-310.03875 m -157.735,310.03875 96.175,-166.57875" />
    </g>
    <path
       inkscape:connector-curvature="0"
       d=""
       style="fill:none;stroke:#000000"
       id="path5675" />
    <g
       id="g5866"
       transform="translate(21.53187,-460.91491)">
      <g
         id="g5861">
        <path
           id="path4163"
           style="fill:none;fill-opacity:1;fill-rule:nonzero;stroke:#00ff00;stroke-width:0.35433072;stroke-miterlimit:4;stroke-dasharray:none;stroke-opacity:1"
           d="m 148.56697,493.48854 6.77313,3.98574 0.81014,-0.55951 c -1.59033,-2.48865 -4.3735,-4.1427 -7.54867,-4.14565 -3.17728,-10e-4 -5.9689,1.65911 -7.55923,4.15578 l 0.78019,0.48144 2.08232,-1.20719 1.4629,0.82617 c -0.0473,0.14684 -0.0743,0.29663 -0.0747,0.45191 -0.001,1.15277 1.36881,2.08696 3.05365,2.0857 1.6878,0.002 3.0566,-0.93167 3.05913,-2.08232 0,-1.1515 -1.3688,-2.08612 -3.05744,-2.08781 -0.37427,8.5e-4 -0.73462,0.0498 -1.06585,0.13545 l -1.06457,-0.67428 2.34899,-1.36543 z"
           inkscape:connector-curvature="0" />
        <path
           id="path4165"
           style="fill:none;fill-opacity:1;fill-rule:nonzero;stroke:#00ff00;stroke-width:0.35433072;stroke-miterlimit:4;stroke-dasharray:none;stroke-opacity:1"
           d="m 148.21295,509.57789 -1.82957,-1.02997 -0.0734,-2.09034 c 0.0873,-0.0304 0.17258,-0.0671 0.25654,-0.11224 0.99623,-0.57638 1.1207,-2.22874 0.27849,-3.69163 -0.84432,-1.46079 -2.33338,-2.17853 -3.33129,-1.60341 -0.99707,0.5768 -1.11985,2.22663 -0.28355,3.68699 0.15612,0.26372 0.32786,0.49832 0.51478,0.71141 l -0.0671,1.57176 -2.19878,-1.24222 0.0376,-7.82547 -0.7958,-0.47849 c -0.68271,1.26205 -1.07217,2.7068 -1.07302,4.24312 -0.002,4.81951 3.8081,8.75165 8.58161,8.94701 l -0.0165,-1.08652 z"
           inkscape:connector-curvature="0" />
        <path
           id="path4167"
           style="fill:none;fill-opacity:1;fill-rule:nonzero;stroke:#00ff00;stroke-width:0.35433072;stroke-miterlimit:4;stroke-dasharray:none;stroke-opacity:1"
           d="m 156.47134,497.45824 -0.93419,0.6574 -8.5e-4,2.31735 -1.50678,0.89706 c -0.0987,-0.10844 -0.21393,-0.20211 -0.34431,-0.27722 -0.99243,-0.57469 -2.49119,0.14262 -3.33509,1.60383 -0.84474,1.46037 -0.71689,3.11272 0.27595,3.68995 0.9996,0.57638 2.49119,-0.14262 3.33509,-1.60425 0.19072,-0.32912 0.32743,-0.665 0.42068,-0.99749 l 1.15277,-0.65402 0,2.69625 -6.68283,3.82118 0.003,1.05698 c 4.82161,-0.13418 8.69342,-4.08321 8.69553,-8.93942 0.003,-1.54644 -0.38946,-2.99879 -1.0785,-4.2676"
           inkscape:connector-curvature="0" />
      </g>
      <g
         id="g5853">
        <path
           id="path4169"
           style="fill:none;fill-opacity:1;fill-rule:nonzero;stroke:#00ff00;stroke-width:0.35433072;stroke-miterlimit:4;stroke-dasharray:none;stroke-opacity:1"
           d="m 163.26979,499.01186 2.54647,8.5e-4 0,1.4802 -2.54647,-4.2e-4 0,-1.48062 z m 0.002,-4.43595 3.20808,8.5e-4 0.0726,1.62914 -3.2815,-8.5e-4 8.5e-4,-1.62914 z m -0.78018,10.34409 -1.84983,-8.5e-4 0.002,-10.34325 1.85109,0 -0.003,10.34409 z"
           inkscape:connector-curvature="0" />
        <path
           id="path4171"
           style="fill:none;fill-opacity:1;fill-rule:nonzero;stroke:#00ff00;stroke-width:0.35433072;stroke-miterlimit:4;stroke-dasharray:none;stroke-opacity:1"
           d="m 170.65897,498.0245 0.74094,-3.44606 0.38313,-4.2e-4 2.28612,10.34451 -1.84687,-4.2e-4 -0.58946,-2.21735 -2.14266,-8.5e-4 0.33882,-1.48231 1.54603,0 -0.71605,-3.19711 z m 0.0738,-3.44648 -2.42579,10.34324 -1.84518,-4.2e-4 2.36671,-10.34324 1.90426,4.2e-4 z"
           inkscape:connector-curvature="0" />
        <path
           id="path4173"
           style="fill:none;fill-opacity:1;fill-rule:nonzero;stroke:#00ff00;stroke-width:0.35433072;stroke-miterlimit:4;stroke-dasharray:none;stroke-opacity:1"
           d="m 177.36796,499.01566 1.18273,4.2e-4 c 0.68946,-0.054 1.03504,-0.37511 1.03504,-0.96162 l 0,-1.1072 c 0,-0.49241 -0.32068,-0.73841 -0.95994,-0.73841 l -1.25698,-4.2e-4 8.5e-4,-1.62915 1.47766,4.3e-4 c 1.72324,4.2e-4 2.58613,0.74009 2.58529,2.21903 l 0,1.25783 c -8.5e-4,0.88609 -0.44347,1.45319 -1.32999,1.70172 0.98694,0.24557 1.47978,0.81225 1.47978,1.6975 l -4.2e-4,1.25446 c -4.2e-4,1.47682 -0.86373,2.21354 -2.59035,2.21354 l -1.6245,-4.2e-4 0,-1.62746 1.25656,4.3e-4 c 0.73841,0 1.10804,-0.24685 1.10804,-0.73631 l 4.2e-4,-1.10508 c 0,-0.58187 -0.39537,-0.90297 -1.18146,-0.95698 l -1.18272,0 0,-1.48231 z m -0.66499,5.90771 -1.8494,-8.5e-4 0.002,-10.34366 1.85025,4.2e-4 -0.003,10.34409 z"
           inkscape:connector-curvature="0" />
        <path
           id="path4175"
           style="fill:none;fill-opacity:1;fill-rule:nonzero;stroke:#00ff00;stroke-width:0.35433072;stroke-miterlimit:4;stroke-dasharray:none;stroke-opacity:1"
           d="m 185.25926,503.2976 3.3545,8.5e-4 -0.073,1.62746 -3.28193,-8.5e-4 4.3e-4,-1.62746 z m -2.55828,1.62704 0.003,-10.34367 1.85025,0.0722 -0.002,10.27194 -1.85067,-4.2e-4 z"
           inkscape:connector-curvature="0" />
        <path
           id="path4177"
           style="fill:none;fill-opacity:1;fill-rule:nonzero;stroke:#00ff00;stroke-width:0.35433072;stroke-miterlimit:4;stroke-dasharray:none;stroke-opacity:1"
           d="m 193.56027,498.02999 0.73926,-3.44606 0.3827,0 2.28908,10.34451 -1.84688,-4.3e-4 -0.59157,-2.21776 -2.14139,0 0.33967,-1.48315 1.54391,4.2e-4 -0.71478,-3.19753 z m 0.0734,-3.44649 -2.42537,10.34325 -1.84771,-8.5e-4 2.36755,-10.34282 1.90553,4.2e-4 z"
           inkscape:connector-curvature="0" />
        <path
           id="path4179"
           style="fill:none;fill-opacity:1;fill-rule:nonzero;stroke:#00ff00;stroke-width:0.35433072;stroke-miterlimit:4;stroke-dasharray:none;stroke-opacity:1"
           d="m 200.26842,499.02114 1.1823,8.5e-4 c 0.68946,-0.0544 1.03631,-0.37511 1.03673,-0.9612 l 4.3e-4,-1.10804 c 0,-0.49199 -0.3228,-0.73798 -0.96247,-0.73798 l -1.25657,-4.3e-4 10e-4,-1.62914 1.47809,4.2e-4 c 1.72409,4.2e-4 2.58571,0.73968 2.58528,2.21861 l 0,1.25741 c -4.2e-4,0.88694 -0.44473,1.45404 -1.33083,1.70256 0.98652,0.24516 1.4802,0.81141 1.47936,1.69751 l 0,1.25445 c 0,1.47682 -0.86289,2.21439 -2.59035,2.21313 l -1.62451,-4.3e-4 4.3e-4,-1.62788 1.25657,8.5e-4 c 0.73925,-4.2e-4 1.10761,-0.24726 1.10761,-0.7363 l 10e-4,-1.10424 c -10e-4,-0.58229 -0.3941,-0.90382 -1.1823,-0.95698 l -1.18146,-8.5e-4 0,-1.48231 z m -0.66542,5.9073 -1.85066,0 0.002,-10.34409 1.85066,8.5e-4 -0.002,10.34324 z"
           inkscape:connector-curvature="0" />
      </g>
      <g
         style="stroke:#00ff00;stroke-width:2.35265326;stroke-miterlimit:4;stroke-dasharray:none;stroke-opacity:1"
         transform="matrix(0.15060898,0,0,0.15060898,156.01755,423.80052)"
         id="g5807">
        <path
           inkscape:connector-curvature="0"
           d="m 30.448758,554.78734 0,21 m 0,-21 9,0 3,1 1,1 1,2 0,2 -1,2 -1,1 -3,1 -9,0 m 7,0 7,11"
           style="fill:none;stroke:#00ff00;stroke-width:2.35265326;stroke-miterlimit:4;stroke-dasharray:none;stroke-opacity:1"
           id="path5663" />
        <path
           inkscape:connector-curvature="0"
           d="m 51.448758,554.78734 0,21 m 0,-21 13,0 m -13,10 8,0 m -8,11 13,0"
           style="fill:none;stroke:#00ff00;stroke-width:2.35265326;stroke-miterlimit:4;stroke-dasharray:none;stroke-opacity:1"
           id="path5665" />
        <path
           inkscape:connector-curvature="0"
           d="m 84.448758,559.78734 -1,-2 -2,-2 -2,-1 -4,0 -2,1 -2,2 -1,2 -1,3 0,5 1,3 1,2 2,2 2,1 4,0 2,-1 2,-2 1,-2 0,-3 m -5,0 5,0"
           style="fill:none;stroke:#00ff00;stroke-width:2.35265326;stroke-miterlimit:4;stroke-dasharray:none;stroke-opacity:1"
           id="path5667" />
        <path
           inkscape:connector-curvature="0"
           d="m 91.448758,554.78734 0,21"
           style="fill:none;stroke:#00ff00;stroke-width:2.35265326;stroke-miterlimit:4;stroke-dasharray:none;stroke-opacity:1"
           id="path5669" />
        <path
           inkscape:connector-curvature="0"
           d="m 104.44876,554.78734 -2,1 -2,2 -1,2 -1,3 0,5 1,3 1,2 2,2 2,1 4,0 2,-1 2,-2 1,-2 1,-3 0,-5 -1,-3 -1,-2 -2,-2 -2,-1 -4,0"
           style="fill:none;stroke:#00ff00;stroke-width:2.35265326;stroke-miterlimit:4;stroke-dasharray:none;stroke-opacity:1"
           id="path5671" />
        <path
           inkscape:connector-curvature="0"
           d="m 121.44876,554.78734 0,21 m 0,-21 14,21 m 0,-21 0,21"
           style="fill:none;stroke:#00ff00;stroke-width:2.35265326;stroke-miterlimit:4;stroke-dasharray:none;stroke-opacity:1"
           id="path5673" />
        <path
           inkscape:connector-curvature="0"
           d="m 159.44876,554.78734 0,21 m 0,-21 14,21 m 0,-21 0,21"
           style="fill:none;stroke:#00ff00;stroke-width:2.35265326;stroke-miterlimit:4;stroke-dasharray:none;stroke-opacity:1"
           id="path5677" />
        <path
           inkscape:connector-curvature="0"
           d="m 181.44876,554.78734 0,15 1,3 2,2 3,1 2,0 3,-1 2,-2 1,-3 0,-15"
           style="fill:none;stroke:#00ff00;stroke-width:2.35265326;stroke-miterlimit:4;stroke-dasharray:none;stroke-opacity:1"
           id="path5679" />
        <path
           inkscape:connector-curvature="0"
           d="m 203.44876,554.78734 0,21 m 0,-21 9,0 3,1 1,1 1,2 0,2 -1,2 -1,1 -3,1 -9,0 m 7,0 7,11"
           style="fill:none;stroke:#00ff00;stroke-width:2.35265326;stroke-miterlimit:4;stroke-dasharray:none;stroke-opacity:1"
           id="path5681" />
        <path
           inkscape:connector-curvature="0"
           d="m 224.44876,554.78734 0,21 m 0,-21 14,21 m 0,-21 0,21"
           style="fill:none;stroke:#00ff00;stroke-width:2.35265326;stroke-miterlimit:4;stroke-dasharray:none;stroke-opacity:1"
           id="path5683" />
        <path
           inkscape:connector-curvature="0"
           d="m 246.44876,554.78734 0,21 m 0,-21 9,0 3,1 1,1 1,2 0,2 -1,2 -1,1 -3,1 m -9,0 9,0 3,1 1,1 1,2 0,3 -1,2 -1,1 -3,1 -9,0"
           style="fill:none;stroke:#00ff00;stroke-width:2.35265326;stroke-miterlimit:4;stroke-dasharray:none;stroke-opacity:1"
           id="path5685" />
        <path
           inkscape:connector-curvature="0"
           d="m 267.44876,554.78734 0,21 m 0,-21 13,0 m -13,10 8,0 m -8,11 13,0"
           style="fill:none;stroke:#00ff00;stroke-width:2.35265326;stroke-miterlimit:4;stroke-dasharray:none;stroke-opacity:1"
           id="path5687" />
        <path
           inkscape:connector-curvature="0"
           d="m 286.44876,554.78734 0,21 m 0,-21 9,0 3,1 1,1 1,2 0,2 -1,2 -1,1 -3,1 -9,0 m 7,0 7,11"
           style="fill:none;stroke:#00ff00;stroke-width:2.35265326;stroke-miterlimit:4;stroke-dasharray:none;stroke-opacity:1"
           id="path5689" />
        <path
           inkscape:connector-curvature="0"
           d="m 321.44876,559.78734 -1,-2 -2,-2 -2,-1 -4,0 -2,1 -2,2 -1,2 -1,3 0,5 1,3 1,2 2,2 2,1 4,0 2,-1 2,-2 1,-2 0,-3 m -5,0 5,0"
           style="fill:none;stroke:#00ff00;stroke-width:2.35265326;stroke-miterlimit:4;stroke-dasharray:none;stroke-opacity:1"
           id="path5691" />
        <g
           style="stroke:#00ff00;stroke-width:2.35265326;stroke-miterlimit:4;stroke-dasharray:none;stroke-opacity:1"
           id="g5803"
           transform="translate(0.36221,0)">
          <path
             inkscape:connector-curvature="0"
             id="path5797"
             d="m 183.08655,551.24403 1,1 1,-1 -1,-1 -1,1"
             style="fill:none;stroke:#00ff00;stroke-width:2.35265326;stroke-miterlimit:4;stroke-dasharray:none;stroke-opacity:1" />
          <path
             inkscape:connector-curvature="0"
             id="path5793"
             d="m 191.08655,551.24403 1,1 1,-1 -1,-1 -1,1"
             style="fill:none;stroke:#00ff00;stroke-width:2.35265326;stroke-miterlimit:4;stroke-dasharray:none;stroke-opacity:1" />
        </g>
      </g>
    </g>
  </g>
  <g
     style="display:inline"
     inkscape:groupmode="layer"
     id="g5902"
     inkscape:label="board">
    <g
       id="g5904"
       transform="matrix(1.1428548,0,0,1.1428548,-2.530883,-589.70486)"
       style="stroke:#ff0000;stroke-width:0.62007999;stroke-miterlimit:4;stroke-dasharray:none;stroke-opacity:1">
      <path
         d="M 17.716474,531.49606 306.24022,698.07481 210.06647,531.49606"
         style="fill:none;stroke:#ff0000;stroke-width:0.62007999;stroke-linecap:butt;stroke-linejoin:miter;stroke-miterlimit:4;stroke-dasharray:none;stroke-opacity:1"
         id="path5906"
         inkscape:connector-curvature="0" />
      <path
         d="m 327.75522,841.53481 0,-310.04 -310.038746,10e-4 0,310.03875 310.039996,0 m -40.045,0 40.045,-310.03875 m -157.735,310.03875 96.175,-166.57875"
         style="fill:none;stroke:#ff0000;stroke-width:0.62007999;stroke-linecap:butt;stroke-linejoin:miter;stroke-miterlimit:4;stroke-dasharray:none;stroke-opacity:1"
         id="path5908"
         inkscape:connector-curvature="0" />
    </g>
    <path
       id="path5910"
       style="fill:none;stroke:#000000"
       d=""
       inkscape:connector-curvature="0" />
    <g
       transform="translate(21.53187,-460.91491)"
       id="g5912">
      <g
         id="g5914">
        <path
           inkscape:connector-curvature="0"
           d="m 148.56697,493.48854 6.77313,3.98574 0.81014,-0.55951 c -1.59033,-2.48865 -4.3735,-4.1427 -7.54867,-4.14565 -3.17728,-10e-4 -5.9689,1.65911 -7.55923,4.15578 l 0.78019,0.48144 2.08232,-1.20719 1.4629,0.82617 c -0.0473,0.14684 -0.0743,0.29663 -0.0747,0.45191 -0.001,1.15277 1.36881,2.08696 3.05365,2.0857 1.6878,0.002 3.0566,-0.93167 3.05913,-2.08232 0,-1.1515 -1.3688,-2.08612 -3.05744,-2.08781 -0.37427,8.5e-4 -0.73462,0.0498 -1.06585,0.13545 l -1.06457,-0.67428 2.34899,-1.36543 z"
           style="fill:none;fill-opacity:1;fill-rule:nonzero;stroke:#00ff00;stroke-width:0.35433072;stroke-miterlimit:4;stroke-dasharray:none;stroke-opacity:1"
           id="path5916" />
        <path
           inkscape:connector-curvature="0"
           d="m 148.21295,509.57789 -1.82957,-1.02997 -0.0734,-2.09034 c 0.0873,-0.0304 0.17258,-0.0671 0.25654,-0.11224 0.99623,-0.57638 1.1207,-2.22874 0.27849,-3.69163 -0.84432,-1.46079 -2.33338,-2.17853 -3.33129,-1.60341 -0.99707,0.5768 -1.11985,2.22663 -0.28355,3.68699 0.15612,0.26372 0.32786,0.49832 0.51478,0.71141 l -0.0671,1.57176 -2.19878,-1.24222 0.0376,-7.82547 -0.7958,-0.47849 c -0.68271,1.26205 -1.07217,2.7068 -1.07302,4.24312 -0.002,4.81951 3.8081,8.75165 8.58161,8.94701 l -0.0165,-1.08652 z"
           style="fill:none;fill-opacity:1;fill-rule:nonzero;stroke:#00ff00;stroke-width:0.35433072;stroke-miterlimit:4;stroke-dasharray:none;stroke-opacity:1"
           id="path5918" />
        <path
           inkscape:connector-curvature="0"
           d="m 156.47134,497.45824 -0.93419,0.6574 -8.5e-4,2.31735 -1.50678,0.89706 c -0.0987,-0.10844 -0.21393,-0.20211 -0.34431,-0.27722 -0.99243,-0.57469 -2.49119,0.14262 -3.33509,1.60383 -0.84474,1.46037 -0.71689,3.11272 0.27595,3.68995 0.9996,0.57638 2.49119,-0.14262 3.33509,-1.60425 0.19072,-0.32912 0.32743,-0.665 0.42068,-0.99749 l 1.15277,-0.65402 0,2.69625 -6.68283,3.82118 0.003,1.05698 c 4.82161,-0.13418 8.69342,-4.08321 8.69553,-8.93942 0.003,-1.54644 -0.38946,-2.99879 -1.0785,-4.2676"
           style="fill:none;fill-opacity:1;fill-rule:nonzero;stroke:#00ff00;stroke-width:0.35433072;stroke-miterlimit:4;stroke-dasharray:none;stroke-opacity:1"
           id="path5920" />
      </g>
      <g
         id="g5922">
        <path
           inkscape:connector-curvature="0"
           d="m 163.26979,499.01186 2.54647,8.5e-4 0,1.4802 -2.54647,-4.2e-4 0,-1.48062 z m 0.002,-4.43595 3.20808,8.5e-4 0.0726,1.62914 -3.2815,-8.5e-4 8.5e-4,-1.62914 z m -0.78018,10.34409 -1.84983,-8.5e-4 0.002,-10.34325 1.85109,0 -0.003,10.34409 z"
           style="fill:none;fill-opacity:1;fill-rule:nonzero;stroke:#00ff00;stroke-width:0.35433072;stroke-miterlimit:4;stroke-dasharray:none;stroke-opacity:1"
           id="path5924" />
        <path
           inkscape:connector-curvature="0"
           d="m 170.65897,498.0245 0.74094,-3.44606 0.38313,-4.2e-4 2.28612,10.34451 -1.84687,-4.2e-4 -0.58946,-2.21735 -2.14266,-8.5e-4 0.33882,-1.48231 1.54603,0 -0.71605,-3.19711 z m 0.0738,-3.44648 -2.42579,10.34324 -1.84518,-4.2e-4 2.36671,-10.34324 1.90426,4.2e-4 z"
           style="fill:none;fill-opacity:1;fill-rule:nonzero;stroke:#00ff00;stroke-width:0.35433072;stroke-miterlimit:4;stroke-dasharray:none;stroke-opacity:1"
           id="path5926" />
        <path
           inkscape:connector-curvature="0"
           d="m 177.36796,499.01566 1.18273,4.2e-4 c 0.68946,-0.054 1.03504,-0.37511 1.03504,-0.96162 l 0,-1.1072 c 0,-0.49241 -0.32068,-0.73841 -0.95994,-0.73841 l -1.25698,-4.2e-4 8.5e-4,-1.62915 1.47766,4.3e-4 c 1.72324,4.2e-4 2.58613,0.74009 2.58529,2.21903 l 0,1.25783 c -8.5e-4,0.88609 -0.44347,1.45319 -1.32999,1.70172 0.98694,0.24557 1.47978,0.81225 1.47978,1.6975 l -4.2e-4,1.25446 c -4.2e-4,1.47682 -0.86373,2.21354 -2.59035,2.21354 l -1.6245,-4.2e-4 0,-1.62746 1.25656,4.3e-4 c 0.73841,0 1.10804,-0.24685 1.10804,-0.73631 l 4.2e-4,-1.10508 c 0,-0.58187 -0.39537,-0.90297 -1.18146,-0.95698 l -1.18272,0 0,-1.48231 z m -0.66499,5.90771 -1.8494,-8.5e-4 0.002,-10.34366 1.85025,4.2e-4 -0.003,10.34409 z"
           style="fill:none;fill-opacity:1;fill-rule:nonzero;stroke:#00ff00;stroke-width:0.35433072;stroke-miterlimit:4;stroke-dasharray:none;stroke-opacity:1"
           id="path5928" />
        <path
           inkscape:connector-curvature="0"
           d="m 185.25926,503.2976 3.3545,8.5e-4 -0.073,1.62746 -3.28193,-8.5e-4 4.3e-4,-1.62746 z m -2.55828,1.62704 0.003,-10.34367 1.85025,0.0722 -0.002,10.27194 -1.85067,-4.2e-4 z"
           style="fill:none;fill-opacity:1;fill-rule:nonzero;stroke:#00ff00;stroke-width:0.35433072;stroke-miterlimit:4;stroke-dasharray:none;stroke-opacity:1"
           id="path5930" />
        <path
           inkscape:connector-curvature="0"
           d="m 193.56027,498.02999 0.73926,-3.44606 0.3827,0 2.28908,10.34451 -1.84688,-4.3e-4 -0.59157,-2.21776 -2.14139,0 0.33967,-1.48315 1.54391,4.2e-4 -0.71478,-3.19753 z m 0.0734,-3.44649 -2.42537,10.34325 -1.84771,-8.5e-4 2.36755,-10.34282 1.90553,4.2e-4 z"
           style="fill:none;fill-opacity:1;fill-rule:nonzero;stroke:#00ff00;stroke-width:0.35433072;stroke-miterlimit:4;stroke-dasharray:none;stroke-opacity:1"
           id="path5932" />
        <path
           inkscape:connector-curvature="0"
           d="m 200.26842,499.02114 1.1823,8.5e-4 c 0.68946,-0.0544 1.03631,-0.37511 1.03673,-0.9612 l 4.3e-4,-1.10804 c 0,-0.49199 -0.3228,-0.73798 -0.96247,-0.73798 l -1.25657,-4.3e-4 10e-4,-1.62914 1.47809,4.2e-4 c 1.72409,4.2e-4 2.58571,0.73968 2.58528,2.21861 l 0,1.25741 c -4.2e-4,0.88694 -0.44473,1.45404 -1.33083,1.70256 0.98652,0.24516 1.4802,0.81141 1.47936,1.69751 l 0,1.25445 c 0,1.47682 -0.86289,2.21439 -2.59035,2.21313 l -1.62451,-4.3e-4 4.3e-4,-1.62788 1.25657,8.5e-4 c 0.73925,-4.2e-4 1.10761,-0.24726 1.10761,-0.7363 l 10e-4,-1.10424 c -10e-4,-0.58229 -0.3941,-0.90382 -1.1823,-0.95698 l -1.18146,-8.5e-4 0,-1.48231 z m -0.66542,5.9073 -1.85066,0 0.002,-10.34409 1.85066,8.5e-4 -0.002,10.34324 z"
           style="fill:none;fill-opacity:1;fill-rule:nonzero;stroke:#00ff00;stroke-width:0.35433072;stroke-miterlimit:4;stroke-dasharray:none;stroke-opacity:1"
           id="path5934" />
      </g>
      <g
         id="g5936"
         transform="matrix(0.15060898,0,0,0.15060898,156.01755,423.80052)"
         style="stroke:#00ff00;stroke-width:2.35265326;stroke-miterlimit:4;stroke-dasharray:none;stroke-opacity:1">
        <path
           id="path5938"
           style="fill:none;stroke:#00ff00;stroke-width:2.35265326;stroke-miterlimit:4;stroke-dasharray:none;stroke-opacity:1"
           d="m 30.448758,554.78734 0,21 m 0,-21 9,0 3,1 1,1 1,2 0,2 -1,2 -1,1 -3,1 -9,0 m 7,0 7,11"
           inkscape:connector-curvature="0" />
        <path
           id="path5940"
           style="fill:none;stroke:#00ff00;stroke-width:2.35265326;stroke-miterlimit:4;stroke-dasharray:none;stroke-opacity:1"
           d="m 51.448758,554.78734 0,21 m 0,-21 13,0 m -13,10 8,0 m -8,11 13,0"
           inkscape:connector-curvature="0" />
        <path
           id="path5942"
           style="fill:none;stroke:#00ff00;stroke-width:2.35265326;stroke-miterlimit:4;stroke-dasharray:none;stroke-opacity:1"
           d="m 84.448758,559.78734 -1,-2 -2,-2 -2,-1 -4,0 -2,1 -2,2 -1,2 -1,3 0,5 1,3 1,2 2,2 2,1 4,0 2,-1 2,-2 1,-2 0,-3 m -5,0 5,0"
           inkscape:connector-curvature="0" />
        <path
           id="path5944"
           style="fill:none;stroke:#00ff00;stroke-width:2.35265326;stroke-miterlimit:4;stroke-dasharray:none;stroke-opacity:1"
           d="m 91.448758,554.78734 0,21"
           inkscape:connector-curvature="0" />
        <path
           id="path5946"
           style="fill:none;stroke:#00ff00;stroke-width:2.35265326;stroke-miterlimit:4;stroke-dasharray:none;stroke-opacity:1"
           d="m 104.44876,554.78734 -2,1 -2,2 -1,2 -1,3 0,5 1,3 1,2 2,2 2,1 4,0 2,-1 2,-2 1,-2 1,-3 0,-5 -1,-3 -1,-2 -2,-2 -2,-1 -4,0"
           inkscape:connector-curvature="0" />
        <path
           id="path5948"
           style="fill:none;stroke:#00ff00;stroke-width:2.35265326;stroke-miterlimit:4;stroke-dasharray:none;stroke-opacity:1"
           d="m 121.44876,554.78734 0,21 m 0,-21 14,21 m 0,-21 0,21"
           inkscape:connector-curvature="0" />
        <path
           id="path5950"
           style="fill:none;stroke:#00ff00;stroke-width:2.35265326;stroke-miterlimit:4;stroke-dasharray:none;stroke-opacity:1"
           d="m 159.44876,554.78734 0,21 m 0,-21 14,21 m 0,-21 0,21"
           inkscape:connector-curvature="0" />
        <path
           id="path5952"
           style="fill:none;stroke:#00ff00;stroke-width:2.35265326;stroke-miterlimit:4;stroke-dasharray:none;stroke-opacity:1"
           d="m 181.44876,554.78734 0,15 1,3 2,2 3,1 2,0 3,-1 2,-2 1,-3 0,-15"
           inkscape:connector-curvature="0" />
        <path
           id="path5954"
           style="fill:none;stroke:#00ff00;stroke-width:2.35265326;stroke-miterlimit:4;stroke-dasharray:none;stroke-opacity:1"
           d="m 203.44876,554.78734 0,21 m 0,-21 9,0 3,1 1,1 1,2 0,2 -1,2 -1,1 -3,1 -9,0 m 7,0 7,11"
           inkscape:connector-curvature="0" />
        <path
           id="path5956"
           style="fill:none;stroke:#00ff00;stroke-width:2.35265326;stroke-miterlimit:4;stroke-dasharray:none;stroke-opacity:1"
           d="m 224.44876,554.78734 0,21 m 0,-21 14,21 m 0,-21 0,21"
           inkscape:connector-curvature="0" />
        <path
           id="path5958"
           style="fill:none;stroke:#00ff00;stroke-width:2.35265326;stroke-miterlimit:4;stroke-dasharray:none;stroke-opacity:1"
           d="m 246.44876,554.78734 0,21 m 0,-21 9,0 3,1 1,1 1,2 0,2 -1,2 -1,1 -3,1 m -9,0 9,0 3,1 1,1 1,2 0,3 -1,2 -1,1 -3,1 -9,0"
           inkscape:connector-curvature="0" />
        <path
           id="path5960"
           style="fill:none;stroke:#00ff00;stroke-width:2.35265326;stroke-miterlimit:4;stroke-dasharray:none;stroke-opacity:1"
           d="m 267.44876,554.78734 0,21 m 0,-21 13,0 m -13,10 8,0 m -8,11 13,0"
           inkscape:connector-curvature="0" />
        <path
           id="path5962"
           style="fill:none;stroke:#00ff00;stroke-width:2.35265326;stroke-miterlimit:4;stroke-dasharray:none;stroke-opacity:1"
           d="m 286.44876,554.78734 0,21 m 0,-21 9,0 3,1 1,1 1,2 0,2 -1,2 -1,1 -3,1 -9,0 m 7,0 7,11"
           inkscape:connector-curvature="0" />
        <path
           id="path5964"
           style="fill:none;stroke:#00ff00;stroke-width:2.35265326;stroke-miterlimit:4;stroke-dasharray:none;stroke-opacity:1"
           d="m 321.44876,559.78734 -1,-2 -2,-2 -2,-1 -4,0 -2,1 -2,2 -1,2 -1,3 0,5 1,3 1,2 2,2 2,1 4,0 2,-1 2,-2 1,-2 0,-3 m -5,0 5,0"
           inkscape:connector-curvature="0" />
        <g
           transform="translate(0.36221,0)"
           id="g5966"
           style="stroke:#00ff00;stroke-width:2.35265326;stroke-miterlimit:4;stroke-dasharray:none;stroke-opacity:1">
          <path
             style="fill:none;stroke:#00ff00;stroke-width:2.35265326;stroke-miterlimit:4;stroke-dasharray:none;stroke-opacity:1"
             d="m 183.08655,551.24403 1,1 1,-1 -1,-1 -1,1"
             id="path5968"
             inkscape:connector-curvature="0" />
          <path
             style="fill:none;stroke:#00ff00;stroke-width:2.35265326;stroke-miterlimit:4;stroke-dasharray:none;stroke-opacity:1"
             d="m 191.08655,551.24403 1,1 1,-1 -1,-1 -1,1"
             id="path5970"
             inkscape:connector-curvature="0" />
        </g>
      </g>
    </g>
    <g
       id="g6355"
       transform="translate(-478.34646,425.19684)">
      <g
         transform="translate(533.50391,-467.52056)"
         id="g5976">
        <g
           id="g5978">
          <path
             inkscape:connector-curvature="0"
             d="m 148.56697,493.48854 6.77313,3.98574 0.81014,-0.55951 c -1.59033,-2.48865 -4.3735,-4.1427 -7.54867,-4.14565 -3.17728,-10e-4 -5.9689,1.65911 -7.55923,4.15578 l 0.78019,0.48144 2.08232,-1.20719 1.4629,0.82617 c -0.0473,0.14684 -0.0743,0.29663 -0.0747,0.45191 -0.001,1.15277 1.36881,2.08696 3.05365,2.0857 1.6878,0.002 3.0566,-0.93167 3.05913,-2.08232 0,-1.1515 -1.3688,-2.08612 -3.05744,-2.08781 -0.37427,8.5e-4 -0.73462,0.0498 -1.06585,0.13545 l -1.06457,-0.67428 2.34899,-1.36543 z"
             style="fill:none;fill-opacity:1;fill-rule:nonzero;stroke:#00ff00;stroke-width:0.35433072;stroke-miterlimit:4;stroke-dasharray:none;stroke-opacity:1"
             id="path5980" />
          <path
             inkscape:connector-curvature="0"
             d="m 148.21295,509.57789 -1.82957,-1.02997 -0.0734,-2.09034 c 0.0873,-0.0304 0.17258,-0.0671 0.25654,-0.11224 0.99623,-0.57638 1.1207,-2.22874 0.27849,-3.69163 -0.84432,-1.46079 -2.33338,-2.17853 -3.33129,-1.60341 -0.99707,0.5768 -1.11985,2.22663 -0.28355,3.68699 0.15612,0.26372 0.32786,0.49832 0.51478,0.71141 l -0.0671,1.57176 -2.19878,-1.24222 0.0376,-7.82547 -0.7958,-0.47849 c -0.68271,1.26205 -1.07217,2.7068 -1.07302,4.24312 -0.002,4.81951 3.8081,8.75165 8.58161,8.94701 l -0.0165,-1.08652 z"
             style="fill:none;fill-opacity:1;fill-rule:nonzero;stroke:#00ff00;stroke-width:0.35433072;stroke-miterlimit:4;stroke-dasharray:none;stroke-opacity:1"
             id="path5982" />
          <path
             inkscape:connector-curvature="0"
             d="m 156.47134,497.45824 -0.93419,0.6574 -8.5e-4,2.31735 -1.50678,0.89706 c -0.0987,-0.10844 -0.21393,-0.20211 -0.34431,-0.27722 -0.99243,-0.57469 -2.49119,0.14262 -3.33509,1.60383 -0.84474,1.46037 -0.71689,3.11272 0.27595,3.68995 0.9996,0.57638 2.49119,-0.14262 3.33509,-1.60425 0.19072,-0.32912 0.32743,-0.665 0.42068,-0.99749 l 1.15277,-0.65402 0,2.69625 -6.68283,3.82118 0.003,1.05698 c 4.82161,-0.13418 8.69342,-4.08321 8.69553,-8.93942 0.003,-1.54644 -0.38946,-2.99879 -1.0785,-4.2676"
             style="fill:none;fill-opacity:1;fill-rule:nonzero;stroke:#00ff00;stroke-width:0.35433072;stroke-miterlimit:4;stroke-dasharray:none;stroke-opacity:1"
             id="path5984" />
        </g>
        <g
           id="g5986">
          <path
             inkscape:connector-curvature="0"
             d="m 163.26979,499.01186 2.54647,8.5e-4 0,1.4802 -2.54647,-4.2e-4 0,-1.48062 z m 0.002,-4.43595 3.20808,8.5e-4 0.0726,1.62914 -3.2815,-8.5e-4 8.5e-4,-1.62914 z m -0.78018,10.34409 -1.84983,-8.5e-4 0.002,-10.34325 1.85109,0 -0.003,10.34409 z"
             style="fill:none;fill-opacity:1;fill-rule:nonzero;stroke:#00ff00;stroke-width:0.35433072;stroke-miterlimit:4;stroke-dasharray:none;stroke-opacity:1"
             id="path5988" />
          <path
             inkscape:connector-curvature="0"
             d="m 170.65897,498.0245 0.74094,-3.44606 0.38313,-4.2e-4 2.28612,10.34451 -1.84687,-4.2e-4 -0.58946,-2.21735 -2.14266,-8.5e-4 0.33882,-1.48231 1.54603,0 -0.71605,-3.19711 z m 0.0738,-3.44648 -2.42579,10.34324 -1.84518,-4.2e-4 2.36671,-10.34324 1.90426,4.2e-4 z"
             style="fill:none;fill-opacity:1;fill-rule:nonzero;stroke:#00ff00;stroke-width:0.35433072;stroke-miterlimit:4;stroke-dasharray:none;stroke-opacity:1"
             id="path5990" />
          <path
             inkscape:connector-curvature="0"
             d="m 177.36796,499.01566 1.18273,4.2e-4 c 0.68946,-0.054 1.03504,-0.37511 1.03504,-0.96162 l 0,-1.1072 c 0,-0.49241 -0.32068,-0.73841 -0.95994,-0.73841 l -1.25698,-4.2e-4 8.5e-4,-1.62915 1.47766,4.3e-4 c 1.72324,4.2e-4 2.58613,0.74009 2.58529,2.21903 l 0,1.25783 c -8.5e-4,0.88609 -0.44347,1.45319 -1.32999,1.70172 0.98694,0.24557 1.47978,0.81225 1.47978,1.6975 l -4.2e-4,1.25446 c -4.2e-4,1.47682 -0.86373,2.21354 -2.59035,2.21354 l -1.6245,-4.2e-4 0,-1.62746 1.25656,4.3e-4 c 0.73841,0 1.10804,-0.24685 1.10804,-0.73631 l 4.2e-4,-1.10508 c 0,-0.58187 -0.39537,-0.90297 -1.18146,-0.95698 l -1.18272,0 0,-1.48231 z m -0.66499,5.90771 -1.8494,-8.5e-4 0.002,-10.34366 1.85025,4.2e-4 -0.003,10.34409 z"
             style="fill:none;fill-opacity:1;fill-rule:nonzero;stroke:#00ff00;stroke-width:0.35433072;stroke-miterlimit:4;stroke-dasharray:none;stroke-opacity:1"
             id="path5992" />
          <path
             inkscape:connector-curvature="0"
             d="m 185.25926,503.2976 3.3545,8.5e-4 -0.073,1.62746 -3.28193,-8.5e-4 4.3e-4,-1.62746 z m -2.55828,1.62704 0.003,-10.34367 1.85025,0.0722 -0.002,10.27194 -1.85067,-4.2e-4 z"
             style="fill:none;fill-opacity:1;fill-rule:nonzero;stroke:#00ff00;stroke-width:0.35433072;stroke-miterlimit:4;stroke-dasharray:none;stroke-opacity:1"
             id="path5994" />
          <path
             inkscape:connector-curvature="0"
             d="m 193.56027,498.02999 0.73926,-3.44606 0.3827,0 2.28908,10.34451 -1.84688,-4.3e-4 -0.59157,-2.21776 -2.14139,0 0.33967,-1.48315 1.54391,4.2e-4 -0.71478,-3.19753 z m 0.0734,-3.44649 -2.42537,10.34325 -1.84771,-8.5e-4 2.36755,-10.34282 1.90553,4.2e-4 z"
             style="fill:none;fill-opacity:1;fill-rule:nonzero;stroke:#00ff00;stroke-width:0.35433072;stroke-miterlimit:4;stroke-dasharray:none;stroke-opacity:1"
             id="path5996" />
          <path
             inkscape:connector-curvature="0"
             d="m 200.26842,499.02114 1.1823,8.5e-4 c 0.68946,-0.0544 1.03631,-0.37511 1.03673,-0.9612 l 4.3e-4,-1.10804 c 0,-0.49199 -0.3228,-0.73798 -0.96247,-0.73798 l -1.25657,-4.3e-4 10e-4,-1.62914 1.47809,4.2e-4 c 1.72409,4.2e-4 2.58571,0.73968 2.58528,2.21861 l 0,1.25741 c -4.2e-4,0.88694 -0.44473,1.45404 -1.33083,1.70256 0.98652,0.24516 1.4802,0.81141 1.47936,1.69751 l 0,1.25445 c 0,1.47682 -0.86289,2.21439 -2.59035,2.21313 l -1.62451,-4.3e-4 4.3e-4,-1.62788 1.25657,8.5e-4 c 0.73925,-4.2e-4 1.10761,-0.24726 1.10761,-0.7363 l 10e-4,-1.10424 c -10e-4,-0.58229 -0.3941,-0.90382 -1.1823,-0.95698 l -1.18146,-8.5e-4 0,-1.48231 z m -0.66542,5.9073 -1.85066,0 0.002,-10.34409 1.85066,8.5e-4 -0.002,10.34324 z"
             style="fill:none;fill-opacity:1;fill-rule:nonzero;stroke:#00ff00;stroke-width:0.35433072;stroke-miterlimit:4;stroke-dasharray:none;stroke-opacity:1"
             id="path5998" />
        </g>
        <g
           id="g6000"
           transform="matrix(0.15060898,0,0,0.15060898,156.01755,423.80052)"
           style="stroke:#00ff00;stroke-width:2.35265326;stroke-miterlimit:4;stroke-dasharray:none;stroke-opacity:1">
          <path
             id="path6002"
             style="fill:none;stroke:#00ff00;stroke-width:2.35265326;stroke-miterlimit:4;stroke-dasharray:none;stroke-opacity:1"
             d="m 30.448758,554.78734 0,21 m 0,-21 9,0 3,1 1,1 1,2 0,2 -1,2 -1,1 -3,1 -9,0 m 7,0 7,11"
             inkscape:connector-curvature="0" />
          <path
             id="path6004"
             style="fill:none;stroke:#00ff00;stroke-width:2.35265326;stroke-miterlimit:4;stroke-dasharray:none;stroke-opacity:1"
             d="m 51.448758,554.78734 0,21 m 0,-21 13,0 m -13,10 8,0 m -8,11 13,0"
             inkscape:connector-curvature="0" />
          <path
             id="path6006"
             style="fill:none;stroke:#00ff00;stroke-width:2.35265326;stroke-miterlimit:4;stroke-dasharray:none;stroke-opacity:1"
             d="m 84.448758,559.78734 -1,-2 -2,-2 -2,-1 -4,0 -2,1 -2,2 -1,2 -1,3 0,5 1,3 1,2 2,2 2,1 4,0 2,-1 2,-2 1,-2 0,-3 m -5,0 5,0"
             inkscape:connector-curvature="0" />
          <path
             id="path6008"
             style="fill:none;stroke:#00ff00;stroke-width:2.35265326;stroke-miterlimit:4;stroke-dasharray:none;stroke-opacity:1"
             d="m 91.448758,554.78734 0,21"
             inkscape:connector-curvature="0" />
          <path
             id="path6010"
             style="fill:none;stroke:#00ff00;stroke-width:2.35265326;stroke-miterlimit:4;stroke-dasharray:none;stroke-opacity:1"
             d="m 104.44876,554.78734 -2,1 -2,2 -1,2 -1,3 0,5 1,3 1,2 2,2 2,1 4,0 2,-1 2,-2 1,-2 1,-3 0,-5 -1,-3 -1,-2 -2,-2 -2,-1 -4,0"
             inkscape:connector-curvature="0" />
          <path
             id="path6012"
             style="fill:none;stroke:#00ff00;stroke-width:2.35265326;stroke-miterlimit:4;stroke-dasharray:none;stroke-opacity:1"
             d="m 121.44876,554.78734 0,21 m 0,-21 14,21 m 0,-21 0,21"
             inkscape:connector-curvature="0" />
          <path
             id="path6014"
             style="fill:none;stroke:#00ff00;stroke-width:2.35265326;stroke-miterlimit:4;stroke-dasharray:none;stroke-opacity:1"
             d="m 159.44876,554.78734 0,21 m 0,-21 14,21 m 0,-21 0,21"
             inkscape:connector-curvature="0" />
          <path
             id="path6016"
             style="fill:none;stroke:#00ff00;stroke-width:2.35265326;stroke-miterlimit:4;stroke-dasharray:none;stroke-opacity:1"
             d="m 181.44876,554.78734 0,15 1,3 2,2 3,1 2,0 3,-1 2,-2 1,-3 0,-15"
             inkscape:connector-curvature="0" />
          <path
             id="path6018"
             style="fill:none;stroke:#00ff00;stroke-width:2.35265326;stroke-miterlimit:4;stroke-dasharray:none;stroke-opacity:1"
             d="m 203.44876,554.78734 0,21 m 0,-21 9,0 3,1 1,1 1,2 0,2 -1,2 -1,1 -3,1 -9,0 m 7,0 7,11"
             inkscape:connector-curvature="0" />
          <path
             id="path6020"
             style="fill:none;stroke:#00ff00;stroke-width:2.35265326;stroke-miterlimit:4;stroke-dasharray:none;stroke-opacity:1"
             d="m 224.44876,554.78734 0,21 m 0,-21 14,21 m 0,-21 0,21"
             inkscape:connector-curvature="0" />
          <path
             id="path6022"
             style="fill:none;stroke:#00ff00;stroke-width:2.35265326;stroke-miterlimit:4;stroke-dasharray:none;stroke-opacity:1"
             d="m 246.44876,554.78734 0,21 m 0,-21 9,0 3,1 1,1 1,2 0,2 -1,2 -1,1 -3,1 m -9,0 9,0 3,1 1,1 1,2 0,3 -1,2 -1,1 -3,1 -9,0"
             inkscape:connector-curvature="0" />
          <path
             id="path6024"
             style="fill:none;stroke:#00ff00;stroke-width:2.35265326;stroke-miterlimit:4;stroke-dasharray:none;stroke-opacity:1"
             d="m 267.44876,554.78734 0,21 m 0,-21 13,0 m -13,10 8,0 m -8,11 13,0"
             inkscape:connector-curvature="0" />
          <path
             id="path6026"
             style="fill:none;stroke:#00ff00;stroke-width:2.35265326;stroke-miterlimit:4;stroke-dasharray:none;stroke-opacity:1"
             d="m 286.44876,554.78734 0,21 m 0,-21 9,0 3,1 1,1 1,2 0,2 -1,2 -1,1 -3,1 -9,0 m 7,0 7,11"
             inkscape:connector-curvature="0" />
          <path
             id="path6028"
             style="fill:none;stroke:#00ff00;stroke-width:2.35265326;stroke-miterlimit:4;stroke-dasharray:none;stroke-opacity:1"
             d="m 321.44876,559.78734 -1,-2 -2,-2 -2,-1 -4,0 -2,1 -2,2 -1,2 -1,3 0,5 1,3 1,2 2,2 2,1 4,0 2,-1 2,-2 1,-2 0,-3 m -5,0 5,0"
             inkscape:connector-curvature="0" />
          <g
             transform="translate(0.36221,0)"
             id="g6030"
             style="stroke:#00ff00;stroke-width:2.35265326;stroke-miterlimit:4;stroke-dasharray:none;stroke-opacity:1">
            <path
               style="fill:none;stroke:#00ff00;stroke-width:2.35265326;stroke-miterlimit:4;stroke-dasharray:none;stroke-opacity:1"
               d="m 183.08655,551.24403 1,1 1,-1 -1,-1 -1,1"
               id="path6032"
               inkscape:connector-curvature="0" />
            <path
               style="fill:none;stroke:#00ff00;stroke-width:2.35265326;stroke-miterlimit:4;stroke-dasharray:none;stroke-opacity:1"
               d="m 191.08655,551.24403 1,1 1,-1 -1,-1 -1,1"
               id="path6034"
               inkscape:connector-curvature="0" />
          </g>
        </g>
      </g>
      <path
         inkscape:connector-curvature="0"
         id="path6153"
         d="m 496.06291,17.717963 0,354.328987 354.33069,0 -10e-4,-354.330415 z"
         style="fill:none;fill-rule:evenodd;stroke:#00ff00;stroke-width:1;stroke-linecap:butt;stroke-linejoin:miter;stroke-miterlimit:4;stroke-dasharray:1, 3;stroke-dashoffset:0;stroke-opacity:1" />
      <path
         inkscape:connector-curvature="0"
         id="path6155"
         d="M 563.31419,4.50628 783.14231,4.50657 893.05494,194.88189 783.14088,385.25721 563.31419,385.25692 453.40157,194.88159 Z"
         style="fill:none;fill-rule:evenodd;stroke:#00ff00;stroke-width:0.99921262;stroke-linecap:butt;stroke-linejoin:miter;stroke-miterlimit:4;stroke-dasharray:3.99685049, 7.99370098;stroke-dashoffset:0;stroke-opacity:1" />
      <path
         id="rect5972"
         d="m 563.31335,-13.210938 a 17.718307,17.718307 0 0 0 -15.3418,8.8593755 L 545.45983,0 492.52038,0 c -7.85197,0 -14.17383,6.3218597 -14.17383,14.173828 l 0,102.070312 -40.28711,69.7793 a 17.718307,17.718307 0 0 0 0,17.71679 l 40.28711,69.7793 0,102.07031 c 0,7.85197 6.32186,14.17383 14.17383,14.17383 l 52.93945,0 2.51172,4.35156 a 17.718307,17.718307 0 0 0 15.3418,8.85743 l 219.82812,0.002 a 17.718307,17.718307 0 0 0 15.3418,-8.85938 l 2.51172,-4.35156 52.9414,0 c 7.85197,0 14.17383,-6.32186 14.17383,-14.17383 l 0,-102.07031 40.28711,-69.7793 a 17.718307,17.718307 0 0 0 0,-17.71679 l -40.28711,-69.7793 0,-102.070312 C 868.11022,6.3218597 861.78836,0 853.93639,0 l -52.93945,0 -2.51172,-4.3515625 a 17.718307,17.718307 0 0 0 -15.34375,-8.8593755 l -219.82812,0 z"
         style="opacity:1;fill:none;fill-opacity:1;fill-rule:nonzero;stroke:#ff0000;stroke-width:0.70866144;stroke-linecap:butt;stroke-linejoin:round;stroke-miterlimit:4;stroke-dasharray:none;stroke-dashoffset:29.05511856;stroke-opacity:1"
         inkscape:connector-curvature="0" />
    </g>
    <g
       id="g6392">
      <path
         style="opacity:1;fill:none;fill-opacity:1;fill-rule:nonzero;stroke:#ff0000;stroke-width:0.70866144;stroke-linecap:butt;stroke-linejoin:round;stroke-miterlimit:4;stroke-dasharray:none;stroke-dashoffset:29.05511856;stroke-opacity:1"
         d="m 84.96689,-13.210938 a 17.718307,17.718307 0 0 0 -15.3418,8.8593755 L 67.11337,0 14.17392,0 C 6.32195,0 9e-5,6.3218597 9e-5,14.173828 l 0,102.070312 -40.28711,69.7793 a 17.718307,17.718307 0 0 0 0,17.71679 l 40.28711,69.7793 0,102.07031 c 0,7.85197 6.32186,14.17383 14.17383,14.17383 l 52.93945,0 2.51172,4.35156 a 17.718307,17.718307 0 0 0 15.3418,8.85743 l 219.82812,0.002 a 17.718307,17.718307 0 0 0 15.3418,-8.85938 l 2.51172,-4.35156 52.9414,0 c 7.85197,0 14.17383,-6.32186 14.17383,-14.17383 l 0,-102.07031 40.28711,-69.7793 a 17.718307,17.718307 0 0 0 0,-17.71679 l -40.28711,-69.7793 0,-102.070312 C 389.76376,6.3218597 383.4419,0 375.58993,0 l -52.93945,0 -2.51172,-4.3515625 a 17.718307,17.718307 0 0 0 -15.34375,-8.8593755 l -219.82812,0 z"
         id="path6342"
         inkscape:connector-curvature="0" />
      <path
         sodipodi:nodetypes="cccccccccccccc"
         style="fill:none;fill-rule:evenodd;stroke:#ff0000;stroke-width:0.70866144;stroke-linecap:butt;stroke-linejoin:miter;stroke-miterlimit:4;stroke-dasharray:none;stroke-opacity:1"
         d="m 312.42196,17.716797 -7.62695,-13.2109376 -219.82812,0 -7.62891,13.2128906 m -59.62109,103.26758 -42.66211,73.89453 42.66211,73.89453 m 59.62304,103.27149 7.62696,13.21093 219.82812,0 7.62695,-13.21093 m 59.625,-103.27149 42.66211,-73.89258 -42.66211,-73.89258"
         id="path6344"
         inkscape:connector-curvature="0" />
    </g>
  </g>
  <g
     inkscape:groupmode="layer"
     id="layer3"
     inkscape:label="hexagon"
     style="display:none">
    <g
       style="display:inline"
       id="g6048"
       transform="translate(194.94624,20.61439)">
      <path
         inkscape:connector-curvature="0"
         id="path6038"
         d="M 300.51832,404.05376 630.25907,594.42937 520.34644,404.05405 300.51832,404.05376 Z"
         style="fill:none;fill-rule:evenodd;stroke:#000000;stroke-width:1px;stroke-linecap:butt;stroke-linejoin:miter;stroke-opacity:1" />
      <path
         inkscape:connector-curvature="0"
         id="path6040"
         d="M 190.60569,594.42907 300.51832,784.8044 325.10684,594.42764 Z"
         style="fill:none;fill-rule:evenodd;stroke:#000000;stroke-width:1px;stroke-linecap:butt;stroke-linejoin:miter;stroke-opacity:1" />
      <path
         inkscape:connector-curvature="0"
         id="path6042"
         d="m 346.28351,430.47513 -10e-4,354.32956 -45.76419,-2.9e-4 z"
         style="fill:none;fill-rule:evenodd;stroke:#000000;stroke-width:1px;stroke-linecap:butt;stroke-linejoin:miter;stroke-opacity:1" />
      <path
         inkscape:connector-curvature="0"
         id="path6044"
         d="m 300.51832,404.05376 45.76419,26.42166 -21.17524,163.95366 -134.50301,0 109.91406,-190.37532"
         style="fill:none;fill-rule:evenodd;stroke:#000000;stroke-width:1px;stroke-linecap:butt;stroke-linejoin:miter;stroke-opacity:1" />
      <path
         inkscape:connector-curvature="0"
         id="path6046"
         d="m 520.34501,784.80469 -174.0625,0 0,-354.32899 283.97656,163.95367 z"
         style="fill:none;fill-rule:evenodd;stroke:#000000;stroke-width:1px;stroke-linecap:butt;stroke-linejoin:miter;stroke-opacity:1" />
    </g>
  </g>
</svg>
