<?xml version="1.0" encoding="UTF-8" standalone="no"?>
<!-- Created with Inkscape (http://www.inkscape.org/) -->

<svg
   xmlns:dc="http://purl.org/dc/elements/1.1/"
   xmlns:cc="http://creativecommons.org/ns#"
   xmlns:rdf="http://www.w3.org/1999/02/22-rdf-syntax-ns#"
   xmlns:svg="http://www.w3.org/2000/svg"
   xmlns="http://www.w3.org/2000/svg"
   xmlns:sodipodi="http://sodipodi.sourceforge.net/DTD/sodipodi-0.dtd"
   xmlns:inkscape="http://www.inkscape.org/namespaces/inkscape"
   width="400mm"
   height="300mm"
   viewBox="0 0 1417.3228 1062.9921"
   id="svg2"
   version="1.1"
   inkscape:version="0.91 r13725"
   sodipodi:docname="4-6.svg">
  <defs
     id="defs4" />
  <sodipodi:namedview
     id="base"
     pagecolor="#ffffff"
     bordercolor="#666666"
     borderopacity="1.0"
     inkscape:pageopacity="0.0"
     inkscape:pageshadow="2"
     inkscape:zoom="0.60075432"
     inkscape:cx="199.99134"
     inkscape:cy="588.59466"
     inkscape:document-units="mm"
     inkscape:current-layer="layer2"
     showgrid="true"
     width="400mm"
     inkscape:snap-bbox="true"
     inkscape:bbox-nodes="true"
     inkscape:snap-center="true"
     inkscape:object-nodes="true"
     inkscape:window-width="1600"
     inkscape:window-height="850"
     inkscape:window-x="0"
     inkscape:window-y="0"
     inkscape:window-maximized="1">
    <inkscape:grid
       type="xygrid"
       id="grid4136" />
  </sodipodi:namedview>
  <metadata
     id="metadata7">
    <rdf:RDF>
      <cc:Work
         rdf:about="">
        <dc:format>image/svg+xml</dc:format>
        <dc:type
           rdf:resource="http://purl.org/dc/dcmitype/StillImage" />
        <dc:title />
      </cc:Work>
    </rdf:RDF>
  </metadata>
  <g
     inkscape:groupmode="layer"
     id="layer2"
     inkscape:label="square">
    <g
       transform="matrix(0.5,0,0,0.5,153.20723,75.256661)"
       style="display:inline;fill:none;stroke:#00ff00;stroke-width:1.41732287;stroke-miterlimit:4;stroke-dasharray:none;stroke-opacity:1"
       id="g6605">
      <path
         inkscape:connector-curvature="0"
         d="m 33.783214,-85.36605 13.546261,7.971467 1.620286,-1.11901 c -3.180655,-4.977314 -8.74701,-8.285397 -15.097348,-8.291304 -6.354557,-0.0025 -11.93779,3.318209 -15.118445,8.311558 l 1.560369,0.962888 4.16464,-2.414394 2.925797,1.652354 c -0.09452,0.293676 -0.148526,0.59326 -0.14937,0.903815 -0.0025,2.305531 2.737607,4.173923 6.107294,4.171391 3.375595,0.0042 6.113202,-1.863328 6.118266,-4.16464 0,-2.302999 -2.737607,-4.172235 -6.11489,-4.17561 -0.748538,0.0017 -1.469228,0.09958 -2.131688,0.270891 l -2.129156,-1.34855 4.697984,-2.730856 z"
         style="fill:none;fill-opacity:1;fill-rule:nonzero;stroke:#00ff00;stroke-width:1.41732287;stroke-miterlimit:4;stroke-dasharray:none;stroke-opacity:1"
         id="path6607" />
      <path
         inkscape:connector-curvature="0"
         d="m 33.075183,-53.18735 -3.659145,-2.059956 -0.146839,-4.180674 c 0.174688,-0.06076 0.345155,-0.13418 0.513091,-0.224477 1.992445,-1.152766 2.241395,-4.457473 0.556973,-7.38327 -1.688641,-2.921577 -4.66676,-4.357049 -6.66258,-3.206815 -1.994133,1.15361 -2.239707,4.453253 -0.5671,7.373987 0.312243,0.527436 0.655709,0.996644 1.029556,1.422813 l -0.134179,3.143523 -4.397556,-2.484438 0.07511,-15.650945 -1.591592,-0.956981 c -1.365428,2.524101 -2.144347,5.41361 -2.146035,8.486245 -0.0034,9.639011 7.616186,17.503302 17.163212,17.894028 l -0.03291,-2.17304 z"
         style="fill:none;fill-opacity:1;fill-rule:nonzero;stroke:#00ff00;stroke-width:1.41732287;stroke-miterlimit:4;stroke-dasharray:none;stroke-opacity:1"
         id="path6609" />
      <path
         inkscape:connector-curvature="0"
         d="m 49.591968,-77.426651 -1.868392,1.314794 -0.0017,4.634691 -3.013562,1.794129 c -0.197472,-0.216882 -0.427857,-0.404228 -0.688621,-0.554441 -1.98485,-1.14939 -4.982378,0.285237 -6.670176,3.207658 -1.689485,2.920734 -1.433783,6.225441 0.55191,7.379894 1.999196,1.152766 4.982378,-0.285237 6.670175,-3.208502 0.381442,-0.658241 0.654866,-1.329985 0.841367,-1.994977 l 2.305531,-1.308043 0,5.392513 -13.365667,7.642346 0.0051,2.113966 c 9.64323,-0.268359 17.386844,-8.166407 17.391064,-17.878837 0.0059,-3.092889 -0.778919,-5.997588 -2.157005,-8.535191"
         style="fill:none;fill-opacity:1;fill-rule:nonzero;stroke:#00ff00;stroke-width:1.41732287;stroke-miterlimit:4;stroke-dasharray:none;stroke-opacity:1"
         id="path6611" />
      <path
         inkscape:connector-curvature="0"
         d="m 63.188863,-74.319416 5.092929,0.0017 0,2.960397 -5.092929,-8.44e-4 0,-2.96124 z m 0.0034,-8.871907 6.416161,0.0017 0.145151,3.258292 -6.563,-0.0017 0.0017,-3.258293 z m -1.560369,20.688176 -3.699652,-0.0017 0.0034,-20.686488 3.702183,0 -0.0059,20.688176 z"
         style="fill:none;fill-opacity:1;fill-rule:nonzero;stroke:#00ff00;stroke-width:1.41732287;stroke-miterlimit:4;stroke-dasharray:none;stroke-opacity:1"
         id="path6613" />
      <path
         inkscape:connector-curvature="0"
         d="m 77.967217,-76.294139 1.481886,-6.892121 0.76626,-8.44e-4 4.572243,20.68902 -3.693745,-8.44e-4 -1.178926,-4.434687 -4.285318,-0.0017 0.677651,-2.964616 3.092045,0 -1.432096,-6.39422 z m 0.147682,-6.892965 -4.851574,20.686489 -3.690368,-8.44e-4 4.733427,-20.686489 3.808515,8.44e-4 z"
         style="fill:none;fill-opacity:1;fill-rule:nonzero;stroke:#00ff00;stroke-width:1.41732287;stroke-miterlimit:4;stroke-dasharray:none;stroke-opacity:1"
         id="path6615" />
      <path
         inkscape:connector-curvature="0"
         d="m 91.385206,-74.311821 2.365448,8.44e-4 c 1.37893,-0.108019 2.070083,-0.750226 2.070083,-1.923246 l 0,-2.21439 c 0,-0.984829 -0.641363,-1.476822 -1.919869,-1.476822 l -2.513974,-8.44e-4 0.0017,-3.258293 2.955334,8.44e-4 c 3.446482,8.44e-4 5.172255,1.480198 5.170567,4.438063 l 0,2.515662 c -0.0017,1.772187 -0.886938,2.906387 -2.659969,3.403443 1.973879,0.491149 2.959553,1.624505 2.959553,3.395005 l -8.44e-4,2.508911 c -8.44e-4,2.953645 -1.727461,4.427092 -5.180694,4.427092 l -3.24901,-8.44e-4 0,-3.254917 2.51313,8.44e-4 c 1.476823,0 2.216078,-0.493681 2.216078,-1.472603 l 8.44e-4,-2.210171 c 0,-1.163736 -0.790733,-1.805943 -2.362916,-1.913962 l -2.365448,0 0,-2.964616 z m -1.329985,11.815425 -3.698807,-0.0017 0.0034,-20.687332 3.700496,8.44e-4 -0.0051,20.688176 z"
         style="fill:none;fill-opacity:1;fill-rule:nonzero;stroke:#00ff00;stroke-width:1.41732287;stroke-miterlimit:4;stroke-dasharray:none;stroke-opacity:1"
         id="path6617" />
      <path
         inkscape:connector-curvature="0"
         d="m 107.1678,-65.747938 6.70899,0.0017 -0.14599,3.254917 -6.56385,-0.0017 8.5e-4,-3.254918 z m -5.11656,3.254074 0.005,-20.687332 3.7005,0.144306 -0.004,20.54387 -3.70134,-8.44e-4 z"
         style="fill:none;fill-opacity:1;fill-rule:nonzero;stroke:#00ff00;stroke-width:1.41732287;stroke-miterlimit:4;stroke-dasharray:none;stroke-opacity:1"
         id="path6619" />
      <path
         inkscape:connector-curvature="0"
         d="m 123.76982,-76.283169 1.47851,-6.89212 0.76541,0 4.57815,20.68902 -3.69374,-8.44e-4 -1.18315,-4.435531 -4.28278,0 0.67934,-2.966304 3.08782,8.44e-4 -1.42956,-6.395065 z m 0.14684,-6.892964 -4.85073,20.686488 -3.69544,-0.0017 4.73512,-20.685644 3.81105,8.44e-4 z"
         style="fill:none;fill-opacity:1;fill-rule:nonzero;stroke:#00ff00;stroke-width:1.41732287;stroke-miterlimit:4;stroke-dasharray:none;stroke-opacity:1"
         id="path6621" />
      <path
         inkscape:connector-curvature="0"
         d="m 137.18612,-74.300851 2.3646,0.0017 c 1.37893,-0.108863 2.07262,-0.750226 2.07346,-1.922401 l 8.5e-4,-2.216078 c 0,-0.983986 -0.64559,-1.475979 -1.92494,-1.475979 l -2.51313,-8.44e-4 0.002,-3.258292 2.95618,8.43e-4 c 3.44817,8.44e-4 5.17141,1.479355 5.17056,4.43722 l 0,2.514818 c -8.4e-4,1.773875 -0.88946,2.908075 -2.66165,3.405131 1.97303,0.490305 2.96039,1.622817 2.95871,3.395004 l 0,2.508911 c 0,2.953645 -1.72578,4.42878 -5.1807,4.426249 l -3.24901,-8.44e-4 8.5e-4,-3.255761 2.51313,0.0017 c 1.47851,-8.43e-4 2.21523,-0.494524 2.21523,-1.472603 l 0.002,-2.208483 c -0.002,-1.16458 -0.7882,-1.807631 -2.3646,-1.913962 l -2.36292,-0.0017 0,-2.964616 z m -1.33083,11.814582 -3.70134,0 0.005,-20.688176 3.70134,0.0017 -0.005,20.686488 z"
         style="fill:none;fill-opacity:1;fill-rule:nonzero;stroke:#00ff00;stroke-width:1.41732287;stroke-miterlimit:4;stroke-dasharray:none;stroke-opacity:1"
         id="path6623" />
      <path
         inkscape:connector-curvature="0"
         d="m 62.788011,-56.10302 c 0,-0.331652 -0.105487,-0.596636 -0.316462,-0.78145 -0.216038,-0.189033 -0.491993,-0.280174 -0.837147,-0.280174 l -1.520706,-8.44e-4 0,2.119874 1.520706,8.43e-4 c 0.345998,-8.43e-4 0.621109,-0.08861 0.836303,-0.274267 0.211819,-0.189033 0.317306,-0.444734 0.317306,-0.783982 m 0.03713,4.798408 -1.426189,-2.859128 -1.285258,-8.44e-4 -8.44e-4,2.858285 -1.031244,0 0.0017,-6.784946 2.630432,0 c 0.324901,0 0.616046,0.05063 0.871747,0.148526 0.25739,0.09705 0.477647,0.234604 0.663305,0.408447 0.180594,0.174687 0.322369,0.385662 0.423637,0.631237 0.0962,0.243886 0.147682,0.508027 0.147682,0.794108 0,0.488618 -0.133336,0.88525 -0.393257,1.187366 -0.25992,0.301271 -0.583977,0.504651 -0.963732,0.613514 l 1.564588,3.003435 -1.202555,0 z"
         style="fill:none;fill-opacity:1;fill-rule:nonzero;stroke:#00ff00;stroke-width:1.41732287;stroke-miterlimit:4;stroke-dasharray:none;stroke-opacity:1"
         id="path6625" />
      <path
         inkscape:connector-curvature="0"
         d="m 65.371185,-51.304612 0.0017,-6.785789 4.335951,0.0017 0,0.925757 -3.308083,-8.44e-4 -8.43e-4,1.981474 2.825372,0.0017 -8.44e-4,0.91141 -2.825372,-8.44e-4 0,2.042235 3.308082,8.44e-4 0,0.923225 -4.335951,-8.44e-4 z"
         style="fill:none;fill-opacity:1;fill-rule:nonzero;stroke:#00ff00;stroke-width:1.41732287;stroke-miterlimit:4;stroke-dasharray:none;stroke-opacity:1"
         id="path6627" />
      <path
         inkscape:connector-curvature="0"
         d="m 75.735105,-53.930824 c -0.0017,0.439671 -0.04388,0.806767 -0.136712,1.104663 -0.09199,0.301272 -0.251482,0.569632 -0.471739,0.812675 -0.261609,0.271735 -0.546847,0.466675 -0.859933,0.586509 -0.311399,0.122365 -0.648114,0.18397 -1.010147,0.18397 -0.354437,-8.44e-4 -0.684402,-0.06161 -0.982298,-0.185658 -0.300428,-0.123209 -0.564568,-0.308023 -0.798328,-0.540095 -0.166248,-0.167092 -0.294521,-0.339247 -0.384818,-0.525749 -0.08777,-0.187345 -0.152745,-0.383974 -0.193253,-0.598324 -0.04135,-0.219414 -0.06667,-0.457393 -0.07258,-0.719845 -0.0084,-0.264141 -0.0084,-0.558661 -0.01013,-0.881875 0.0017,-0.327432 0.0034,-0.621109 0.01013,-0.883562 0.0076,-0.262452 0.03122,-0.502963 0.07258,-0.719001 0.04135,-0.216882 0.107176,-0.416886 0.195785,-0.600856 0.08861,-0.184814 0.216038,-0.362033 0.383974,-0.525749 0.232072,-0.232916 0.496212,-0.41351 0.791577,-0.535876 0.297052,-0.125741 0.626173,-0.189033 0.989049,-0.189033 0.362877,0 0.683558,0.06161 0.96542,0.169624 0.286926,0.11055 0.529125,0.259077 0.735036,0.452329 0.206755,0.189878 0.373847,0.415199 0.502964,0.66668 0.127428,0.25317 0.212662,0.529125 0.26414,0.821114 l -1.038839,-8.44e-4 c -0.09114,-0.373003 -0.25739,-0.664992 -0.496213,-0.873435 -0.242199,-0.204224 -0.55191,-0.307179 -0.933352,-0.307179 -0.201692,0 -0.391569,0.03882 -0.562036,0.112238 -0.171312,0.07848 -0.318994,0.178907 -0.439672,0.305491 -0.08101,0.08945 -0.14937,0.186502 -0.204223,0.289458 -0.0557,0.105487 -0.09452,0.239667 -0.122365,0.390725 -0.03038,0.153589 -0.05063,0.350218 -0.06329,0.572163 -0.01266,0.227853 -0.01857,0.507183 -0.01857,0.855713 0,0.341779 0.0059,0.627861 0.01772,0.853182 0.01181,0.232072 0.03376,0.422793 0.06329,0.580602 0.027,0.15359 0.06667,0.285238 0.121521,0.389038 0.0557,0.104643 0.124053,0.204223 0.204224,0.291988 0.124053,0.127429 0.269203,0.227009 0.439671,0.298741 0.172155,0.07426 0.360345,0.111394 0.56288,0.111394 0.221102,0 0.431233,-0.04304 0.62111,-0.124897 0.194096,-0.08101 0.349374,-0.200004 0.484398,-0.351062 0.12996,-0.145994 0.216038,-0.303803 0.267515,-0.476802 0.05063,-0.171312 0.07679,-0.36794 0.07679,-0.591573 l 0,-0.380599 -1.448974,-8.44e-4 0,-0.875122 2.477687,0.0017 0,1.037996 z"
         style="fill:none;fill-opacity:1;fill-rule:nonzero;stroke:#00ff00;stroke-width:1.41732287;stroke-miterlimit:4;stroke-dasharray:none;stroke-opacity:1"
         id="path6629" />
      <path
         inkscape:connector-curvature="0"
         d="m 77.264249,-58.086181 1.0304,0 -8.43e-4,6.785789 -1.032089,0 0.0025,-6.785789 z"
         style="fill:none;fill-opacity:1;fill-rule:nonzero;stroke:#00ff00;stroke-width:1.41732287;stroke-miterlimit:4;stroke-dasharray:none;stroke-opacity:1"
         id="path6631" />
      <path
         inkscape:connector-curvature="0"
         d="m 83.694757,-54.691177 c 0,-0.34853 -0.0068,-0.628705 -0.01519,-0.855713 -0.0051,-0.221946 -0.03122,-0.419418 -0.0557,-0.57132 -0.02954,-0.152745 -0.07258,-0.286925 -0.124897,-0.392413 -0.05485,-0.102111 -0.122366,-0.200004 -0.20338,-0.289457 -0.123209,-0.125741 -0.26836,-0.227852 -0.446422,-0.305491 -0.174687,-0.07342 -0.362877,-0.111395 -0.5671,-0.112239 -0.205912,0 -0.392413,0.03798 -0.5671,0.112239 -0.174687,0.07764 -0.324901,0.17975 -0.444735,0.305491 -0.08101,0.08945 -0.150214,0.186502 -0.203379,0.288614 -0.0557,0.105487 -0.09705,0.240511 -0.124897,0.390725 -0.02785,0.154433 -0.04726,0.351061 -0.05907,0.573007 -0.0068,0.227852 -0.0135,0.507183 -0.0135,0.854869 0,0.343467 0.0068,0.624485 0.0135,0.848118 0.01181,0.232073 0.03122,0.422794 0.05738,0.575539 0.02869,0.156122 0.07089,0.286926 0.124897,0.391569 0.05485,0.107175 0.122365,0.198316 0.203379,0.291989 0.120678,0.126585 0.270048,0.225321 0.446423,0.305492 0.171311,0.07595 0.361188,0.113082 0.565412,0.112238 0.204223,8.44e-4 0.392413,-0.03713 0.568788,-0.112238 0.176374,-0.08017 0.322369,-0.178907 0.44389,-0.305492 0.08186,-0.09283 0.151058,-0.184814 0.205068,-0.291145 0.05148,-0.105487 0.09536,-0.235448 0.124053,-0.392413 0.02616,-0.152745 0.05148,-0.342623 0.05654,-0.573851 0.0093,-0.224477 0.01603,-0.507183 0.01603,-0.848118 m 1.031244,0 c 0,0.322369 -0.0034,0.618578 -0.01435,0.88103 -0.0034,0.262453 -0.027,0.501276 -0.06582,0.719846 -0.03629,0.215194 -0.09958,0.411822 -0.189877,0.598324 -0.08861,0.187345 -0.21857,0.359501 -0.380599,0.525749 -0.234603,0.232916 -0.504651,0.41773 -0.802547,0.540095 -0.29874,0.124053 -0.628705,0.184814 -0.992425,0.184814 -0.362877,0 -0.691997,-0.06076 -0.987362,-0.184814 -0.296208,-0.123209 -0.560348,-0.308023 -0.797484,-0.540939 -0.162872,-0.166248 -0.291989,-0.339247 -0.381442,-0.525749 -0.08692,-0.187345 -0.154433,-0.38313 -0.192409,-0.599168 -0.04135,-0.217726 -0.06582,-0.457393 -0.07089,-0.719846 -0.0093,-0.262452 -0.01097,-0.557817 -0.01097,-0.88103 8.44e-4,-0.326589 0.0017,-0.620265 0.01097,-0.882718 0.0051,-0.262452 0.03038,-0.503807 0.07089,-0.719845 0.03966,-0.216038 0.107175,-0.416042 0.194097,-0.600856 0.08777,-0.18397 0.217726,-0.361189 0.379754,-0.524905 0.238823,-0.23376 0.502964,-0.414354 0.80086,-0.535876 0.293677,-0.126585 0.622797,-0.189033 0.985674,-0.189877 0.36372,8.44e-4 0.693684,0.06329 0.992425,0.189877 0.297896,0.122365 0.567099,0.303804 0.802547,0.538407 0.162873,0.162029 0.291145,0.339248 0.380598,0.523218 0.08945,0.185657 0.15359,0.385661 0.189878,0.602543 0.03798,0.215194 0.06076,0.457393 0.06414,0.718158 0.01097,0.263296 0.01519,0.556129 0.01435,0.883562"
         style="fill:none;fill-opacity:1;fill-rule:nonzero;stroke:#00ff00;stroke-width:1.41732287;stroke-miterlimit:4;stroke-dasharray:none;stroke-opacity:1"
         id="path6633" />
      <path
         inkscape:connector-curvature="0"
         d="m 90.43582,-51.29786 -3.13002,-4.777311 -0.0017,4.776467 -1.030401,0 8.44e-4,-6.78579 0.944323,0 3.13002,4.767184 8.44e-4,-4.76634 1.029556,0 -8.43e-4,6.78579 -0.942635,0 z"
         style="fill:none;fill-opacity:1;fill-rule:nonzero;stroke:#00ff00;stroke-width:1.41732287;stroke-miterlimit:4;stroke-dasharray:none;stroke-opacity:1"
         id="path6635" />
      <path
         inkscape:connector-curvature="0"
         d="m 99.221649,-51.296173 -3.13002,-4.77731 -0.0017,4.776466 -1.029557,0 0.0017,-6.784945 0.940103,0 3.131708,4.768028 0.0025,-4.768028 1.028717,8.44e-4 -0.002,6.785789 -0.941793,-8.44e-4 z"
         style="fill:none;fill-opacity:1;fill-rule:nonzero;stroke:#00ff00;stroke-width:1.41732287;stroke-miterlimit:4;stroke-dasharray:none;stroke-opacity:1"
         id="path6637" />
      <path
         inkscape:connector-curvature="0"
         d="m 104.85974,-59.817861 0.87849,8.43e-4 0,1.032932 -0.87849,0 0,-1.033775 z m -2.0608,0 0.87765,0 0,1.033775 -0.87765,0 0,-1.033775 z m 3.89374,6.238942 c 0,0.347687 -0.0616,0.66668 -0.18312,0.956138 -0.12406,0.288613 -0.29705,0.536719 -0.51562,0.739255 -0.21942,0.200004 -0.47849,0.362032 -0.77555,0.475959 -0.29958,0.113082 -0.62111,0.172155 -0.96373,0.171311 -0.34262,0 -0.66246,-0.05907 -0.96204,-0.171311 -0.30043,-0.11477 -0.55698,-0.275955 -0.77217,-0.476803 -0.2152,-0.202536 -0.38398,-0.451486 -0.51056,-0.740099 -0.12321,-0.288613 -0.18313,-0.607607 -0.18313,-0.955293 l 0.002,-4.501356 1.0304,8.44e-4 -0.002,4.449878 c 0,0.459924 0.12406,0.81605 0.3806,1.077658 0.2557,0.258233 0.59158,0.390725 1.0169,0.390725 0.42533,0 0.76457,-0.131648 1.02365,-0.390725 0.25401,-0.259077 0.38397,-0.61689 0.38397,-1.077658 l 0.002,-4.449034 1.0304,-8.44e-4 -0.002,4.501355 z"
         style="fill:none;fill-opacity:1;fill-rule:nonzero;stroke:#00ff00;stroke-width:1.41732287;stroke-miterlimit:4;stroke-dasharray:none;stroke-opacity:1"
         id="path6639" />
      <path
         inkscape:connector-curvature="0"
         d="m 112.07085,-56.090361 c 0,-0.332496 -0.10549,-0.59748 -0.32153,-0.78145 -0.20928,-0.189034 -0.48946,-0.281018 -0.82955,-0.281018 l -1.52239,0 0,2.119873 1.52239,0 c 0.34009,0 0.62027,-0.08945 0.82955,-0.274267 0.21604,-0.188189 0.32153,-0.444735 0.32153,-0.783138 m 0.038,4.797564 -1.42957,-2.859129 -1.28357,-8.44e-4 0,2.859973 -1.03124,-8.44e-4 0.003,-6.785789 2.63296,0 c 0.319,8.44e-4 0.61099,0.05148 0.87006,0.148526 0.25486,0.09789 0.47596,0.236292 0.66077,0.409291 0.18313,0.174687 0.32659,0.385662 0.42533,0.631236 0.097,0.244731 0.14768,0.508027 0.14768,0.794109 0,0.487773 -0.13333,0.884406 -0.39494,1.186521 -0.25908,0.301272 -0.58229,0.505496 -0.96289,0.613515 l 1.5629,3.004279 -1.20002,-8.44e-4 z"
         style="fill:none;fill-opacity:1;fill-rule:nonzero;stroke:#00ff00;stroke-width:1.41732287;stroke-miterlimit:4;stroke-dasharray:none;stroke-opacity:1"
         id="path6641" />
      <path
         inkscape:connector-curvature="0"
         d="m 118.81529,-51.291109 -3.13002,-4.777311 -0.002,4.776467 -1.03124,0 8.4e-4,-6.785789 0.94517,0 3.13086,4.768027 0.002,-4.767184 1.0304,0 -0.002,6.78579 -0.94432,0 z"
         style="fill:none;fill-opacity:1;fill-rule:nonzero;stroke:#00ff00;stroke-width:1.41732287;stroke-miterlimit:4;stroke-dasharray:none;stroke-opacity:1"
         id="path6643" />
      <path
         inkscape:connector-curvature="0"
         d="m 125.26858,-53.251486 c 0,-0.306335 -0.0928,-0.556129 -0.28355,-0.743475 -0.18819,-0.190721 -0.47005,-0.284393 -0.82955,-0.284393 l -1.62197,0 -8.5e-4,2.065864 1.62282,0 c 0.3595,0 0.63967,-0.09874 0.82871,-0.293677 0.18987,-0.190721 0.28439,-0.438828 0.28439,-0.744319 m -0.10211,-2.925797 c 8.4e-4,-0.318149 -0.1038,-0.561192 -0.3038,-0.72744 -0.20423,-0.165404 -0.47006,-0.243887 -0.80086,-0.243887 l -1.5283,-8.44e-4 0,1.941811 1.52661,8.44e-4 c 0.33165,0 0.59664,-0.08101 0.80255,-0.24895 0.19916,-0.16456 0.3038,-0.404228 0.3038,-0.721534 m 1.13504,2.972212 c -0.002,0.313086 -0.0523,0.588197 -0.15443,0.824489 -0.10211,0.239667 -0.24473,0.439671 -0.42364,0.599168 -0.18144,0.166248 -0.39916,0.286081 -0.6498,0.367096 -0.24895,0.08186 -0.52575,0.124897 -0.82364,0.124053 l -2.74689,0 8.4e-4,-6.78579 2.64225,8.44e-4 c 0.63714,0 1.13673,0.163717 1.4996,0.494525 0.36457,0.329964 0.55023,0.784826 0.55023,1.36374 0,0.184814 -0.0295,0.353594 -0.081,0.508871 -0.054,0.159497 -0.12489,0.295365 -0.21266,0.424481 -0.0836,0.122365 -0.18059,0.225321 -0.28693,0.308867 -0.1097,0.08861 -0.22025,0.15359 -0.33249,0.196628 0.12911,0.05232 0.25992,0.124054 0.37806,0.213507 0.11815,0.09536 0.23208,0.205911 0.32744,0.330808 0.0945,0.127429 0.16793,0.275955 0.22869,0.447266 0.0549,0.171312 0.0844,0.366252 0.0844,0.581447"
         style="fill:none;fill-opacity:1;fill-rule:nonzero;stroke:#00ff00;stroke-width:1.41732287;stroke-miterlimit:4;stroke-dasharray:none;stroke-opacity:1"
         id="path6645" />
      <path
         inkscape:connector-curvature="0"
         d="m 127.79437,-51.289421 0.002,-6.784946 4.33848,8.44e-4 -8.4e-4,0.926601 -3.30977,-8.44e-4 -8.5e-4,1.981474 2.82538,8.44e-4 -0.002,0.913098 -2.82369,-8.44e-4 0,2.041391 3.30977,8.44e-4 -8.4e-4,0.924069 -4.33764,-0.0025 z"
         style="fill:none;fill-opacity:1;fill-rule:nonzero;stroke:#00ff00;stroke-width:1.41732287;stroke-miterlimit:4;stroke-dasharray:none;stroke-opacity:1"
         id="path6647" />
      <path
         inkscape:connector-curvature="0"
         d="m 137.24941,-56.084454 c 0,-0.332496 -0.10717,-0.595792 -0.32152,-0.78145 -0.21267,-0.189033 -0.48947,-0.280174 -0.83124,-0.281018 l -1.52577,0 0,2.120717 1.52492,0 c 0.34262,0 0.61774,-0.08945 0.83209,-0.274267 0.21435,-0.189033 0.32152,-0.444734 0.32152,-0.783982 m 0.0329,4.798408 -1.42619,-2.859972 -1.28525,0 -0.002,2.859128 -1.0304,-8.44e-4 0.002,-6.784945 2.62958,0 c 0.32406,8.44e-4 0.61268,0.05148 0.87175,0.148526 0.25824,0.09705 0.48102,0.234604 0.66246,0.408447 0.18566,0.175531 0.32575,0.384818 0.43039,0.630392 0.0937,0.244731 0.14262,0.509715 0.14178,0.794953 0,0.489461 -0.13081,0.88525 -0.38904,1.186522 -0.26414,0.302115 -0.58482,0.506339 -0.96964,0.615202 l 1.56965,3.002591 -1.20509,0 z"
         style="fill:none;fill-opacity:1;fill-rule:nonzero;stroke:#00ff00;stroke-width:1.41732287;stroke-miterlimit:4;stroke-dasharray:none;stroke-opacity:1"
         id="path6649" />
      <path
         inkscape:connector-curvature="0"
         d="m 144.50188,-53.913946 c 0,0.439671 -0.0464,0.807611 -0.14009,1.104663 -0.0878,0.301272 -0.24811,0.568788 -0.47174,0.813518 -0.26161,0.270892 -0.54685,0.465832 -0.85909,0.58651 -0.30971,0.122365 -0.64896,0.183126 -1.00677,0.182282 -0.3595,8.44e-4 -0.68525,-0.05992 -0.98567,-0.184814 -0.29706,-0.123209 -0.5671,-0.307179 -0.80086,-0.540939 -0.16288,-0.165404 -0.2903,-0.338403 -0.3806,-0.525749 -0.0911,-0.185657 -0.15359,-0.382286 -0.19494,-0.598324 -0.0447,-0.217726 -0.0658,-0.456549 -0.0743,-0.719002 -0.005,-0.263296 -0.007,-0.55866 -0.007,-0.881874 8.5e-4,-0.326588 0.002,-0.621109 0.008,-0.883562 0.007,-0.262452 0.0287,-0.503807 0.0743,-0.719001 0.0397,-0.216038 0.10548,-0.416886 0.19409,-0.600856 0.0911,-0.184814 0.21688,-0.361189 0.38144,-0.524905 0.23208,-0.23376 0.49959,-0.414354 0.7958,-0.53672 0.29705,-0.125741 0.62533,-0.188189 0.98567,-0.188189 0.36288,0 0.68694,0.06076 0.9688,0.170468 0.28355,0.109706 0.52912,0.257389 0.73504,0.450641 0.20506,0.189878 0.37131,0.416042 0.50043,0.66668 0.12658,0.25317 0.21604,0.529125 0.26836,0.821114 l -1.04306,-8.44e-4 c -0.0894,-0.373003 -0.25317,-0.664992 -0.49621,-0.872591 -0.2422,-0.205068 -0.55107,-0.307179 -0.93336,-0.308023 -0.20084,0 -0.38903,0.03966 -0.56203,0.112238 -0.173,0.07848 -0.31815,0.179751 -0.4363,0.306335 -0.0827,0.08945 -0.14937,0.185658 -0.20507,0.288614 -0.054,0.105487 -0.0937,0.239667 -0.1232,0.391569 -0.0312,0.153589 -0.0523,0.350218 -0.0641,0.572163 -0.0118,0.226165 -0.0228,0.507183 -0.0219,0.854869 -8.5e-4,0.342623 0.008,0.627861 0.0219,0.854026 0.0118,0.231228 0.0321,0.421949 0.0625,0.579758 0.0295,0.15359 0.0709,0.285238 0.12405,0.389038 0.054,0.104643 0.12152,0.204223 0.20507,0.291988 0.12068,0.128273 0.26414,0.227009 0.43714,0.299584 0.17131,0.07426 0.3595,0.110551 0.56541,0.110551 0.21773,0 0.42532,-0.04219 0.61773,-0.124053 0.18819,-0.08186 0.34938,-0.200004 0.48609,-0.351906 0.12574,-0.145994 0.21604,-0.303803 0.26752,-0.476802 0.0464,-0.171312 0.0743,-0.367096 0.0743,-0.590729 l 0,-0.380599 -1.44391,0 0,-0.875967 2.476,8.44e-4 0,1.037996 z"
         style="fill:none;fill-opacity:1;fill-rule:nonzero;stroke:#00ff00;stroke-width:1.41732287;stroke-miterlimit:4;stroke-dasharray:none;stroke-opacity:1"
         id="path6651" />
    </g>
    <g
       id="g4245"
       transform="matrix(1.1428548,0,0,1.1428548,-2.530883,-589.70486)"
       style="stroke:#ff0000;stroke-width:0.62007999;stroke-miterlimit:4;stroke-dasharray:none;stroke-opacity:1">
      <path
         d="M 17.716474,531.49606 306.24022,698.07481 210.06647,531.49606"
         style="fill:none;stroke:#ff0000;stroke-width:0.62007999;stroke-linecap:butt;stroke-linejoin:miter;stroke-miterlimit:4;stroke-dasharray:none;stroke-opacity:1"
         id="path4202"
         inkscape:connector-curvature="0" />
      <path
         d="m 327.75522,841.53481 0,-310.04 -310.038746,10e-4 0,310.03875 310.039996,0 m -40.045,0 40.045,-310.03875 m -157.735,310.03875 96.175,-166.57875"
         style="fill:none;stroke:#ff0000;stroke-width:0.62007999;stroke-linecap:butt;stroke-linejoin:miter;stroke-miterlimit:4;stroke-dasharray:none;stroke-opacity:1"
         id="path4204"
         inkscape:connector-curvature="0" />
    </g>
  </g>
</svg>
